<svg xmlns="http://www.w3.org/2000/svg" viewBox="0 0 500 500"><g id="freepik--background-simple--inject-407"><path d="M333.11,35.89S259.66,14.26,187.13,58,77.62,183.33,45.89,248.78,31.75,378.36,86.71,405.29s92.77-18.61,170.17-24.54,98.14,3.71,162.63-41.6S496.27,193.69,446.1,122.5,333.11,35.89,333.11,35.89Z" style="fill:#7E57C2"></path><path d="M333.11,35.89S259.66,14.26,187.13,58,77.62,183.33,45.89,248.78,31.75,378.36,86.71,405.29s92.77-18.61,170.17-24.54,98.14,3.71,162.63-41.6S496.27,193.69,446.1,122.5,333.11,35.89,333.11,35.89Z" style="fill:#fff;opacity:0.7000000000000001"></path></g><g id="freepik--Graphics--inject-407"><rect x="82.93" y="45" width="248.03" height="148.97" rx="10.93" style="fill:none;stroke:#263238;stroke-miterlimit:10"></rect><circle cx="118.34" cy="153.4" r="22.97" transform="translate(-67.91 206.74) rotate(-68.33)" style="fill:none;stroke:#263238;stroke-miterlimit:10"></circle><circle cx="118.34" cy="153.4" r="8.89" transform="translate(-23.1 21) rotate(-9.24)" style="fill:none;stroke:#263238;stroke-miterlimit:10"></circle><line x1="123.97" y1="146.67" x2="134.48" y2="137.47" style="fill:none;stroke:#263238;stroke-miterlimit:10"></line><line x1="118.34" y1="162.29" x2="118.34" y2="176.37" style="fill:none;stroke:#263238;stroke-miterlimit:10"></line><rect x="106.23" y="75.39" width="7.74" height="33.74" style="fill:none;stroke:#263238;stroke-miterlimit:10"></rect><rect x="116.74" y="88.66" width="7.74" height="20.46" style="fill:none;stroke:#263238;stroke-miterlimit:10"></rect><rect x="127.25" y="66.54" width="7.74" height="42.58" style="fill:none;stroke:#263238;stroke-miterlimit:10"></rect><rect x="137.75" y="58.8" width="7.74" height="50.33" style="fill:none;stroke:#263238;stroke-miterlimit:10"></rect><rect x="148.26" y="79.81" width="7.74" height="29.31" style="fill:none;stroke:#263238;stroke-miterlimit:10"></rect><rect x="158.77" y="87" width="7.74" height="22.12" style="fill:none;stroke:#263238;stroke-miterlimit:10"></rect><rect x="169.28" y="95.85" width="7.74" height="13.27" style="fill:none;stroke:#263238;stroke-miterlimit:10"></rect><rect x="179.78" y="75.39" width="7.74" height="33.74" style="fill:none;stroke:#263238;stroke-miterlimit:10"></rect><rect x="190.29" y="85.34" width="7.74" height="23.78" style="fill:none;stroke:#263238;stroke-miterlimit:10"></rect><rect x="200.8" y="75.39" width="7.74" height="33.74" style="fill:none;stroke:#263238;stroke-miterlimit:10"></rect><rect x="211.31" y="96.4" width="7.74" height="12.72" style="fill:none;stroke:#263238;stroke-miterlimit:10"></rect><rect x="221.82" y="75.39" width="7.74" height="33.74" style="fill:none;stroke:#263238;stroke-miterlimit:10"></rect><line x1="92.41" y1="109.12" x2="257.65" y2="109.12" style="fill:none;stroke:#263238;stroke-miterlimit:10"></line><line x1="214.03" y1="117.46" x2="245.77" y2="117.46" style="fill:none;stroke:#263238;stroke-miterlimit:10"></line><line x1="214.03" y1="122.63" x2="245.77" y2="122.63" style="fill:none;stroke:#263238;stroke-miterlimit:10"></line><line x1="214.03" y1="127.8" x2="245.77" y2="127.8" style="fill:none;stroke:#263238;stroke-miterlimit:10"></line><line x1="214.03" y1="132.97" x2="245.77" y2="132.97" style="fill:none;stroke:#263238;stroke-miterlimit:10"></line><line x1="146.1" y1="160.28" x2="177.85" y2="160.28" style="fill:none;stroke:#263238;stroke-miterlimit:10"></line><line x1="146.1" y1="165.45" x2="177.85" y2="165.45" style="fill:none;stroke:#263238;stroke-miterlimit:10"></line><line x1="146.1" y1="170.62" x2="177.85" y2="170.62" style="fill:none;stroke:#263238;stroke-miterlimit:10"></line><line x1="146.1" y1="175.79" x2="177.85" y2="175.79" style="fill:none;stroke:#263238;stroke-miterlimit:10"></line><line x1="262.75" y1="56.92" x2="262.75" y2="177.26" style="fill:none;stroke:#263238;stroke-miterlimit:10"></line><rect x="85.2" y="206.82" width="92.25" height="66.54" rx="10.24" style="fill:none;stroke:#263238;stroke-miterlimit:10"></rect><rect x="85.2" y="283.95" width="92.25" height="66.54" rx="10.24" style="fill:none;stroke:#263238;stroke-miterlimit:10"></rect><path d="M119.28,237.07v-9.45a12.06,12.06,0,1,1,24.11,0v9.45h4.8v-9.45a16.86,16.86,0,1,0-33.71,0v9.45Z" style="fill:none;stroke:#263238;stroke-linecap:round;stroke-linejoin:round"></path><rect x="112.69" y="237.07" width="36.8" height="31.1" style="fill:none;stroke:#263238;stroke-linecap:round;stroke-linejoin:round"></rect><path d="M134.92,250a4,4,0,1,0-5.91,3.53l-.67,7.06h5.15l-.67-7.06A4,4,0,0,0,134.92,250Z" style="fill:#263238;stroke:#263238;stroke-linecap:round;stroke-linejoin:round"></path><path d="M130.44,290.22A26.77,26.77,0,1,0,157.2,317,26.79,26.79,0,0,0,130.44,290.22Zm0,3.32c2.25,0,4.63,2.91,6.33,7.8H124.1C125.81,296.45,128.19,293.54,130.44,293.54Zm7.3,11.12a52,52,0,0,1,1.34,10.66H121.8a52,52,0,0,1,1.34-10.66Zm1.34,14A49.61,49.61,0,0,1,137.3,331H123.58a49.61,49.61,0,0,1-1.78-12.32Zm-20.62-3.33H107.08a23.23,23.23,0,0,1,3.46-10.66h9.16A56.21,56.21,0,0,0,118.46,315.32Zm0,3.33A54.84,54.84,0,0,0,120.1,331h-8.43a23.3,23.3,0,0,1-4.59-12.32Zm2.69,15.64a22.91,22.91,0,0,0,2.58,5.15,23.31,23.31,0,0,1-9-5.15Zm3.59,0h11.4c-1.64,3.88-3.72,6.13-5.7,6.13S126.37,338.17,124.74,334.29Zm15,0h6.46a23.38,23.38,0,0,1-9,5.15A23.78,23.78,0,0,0,139.73,334.29Zm1-3.32a53.72,53.72,0,0,0,1.64-12.32H153.8A23.38,23.38,0,0,1,149.21,331Zm1.64-15.65a55.41,55.41,0,0,0-1.24-10.66h9.17a23.34,23.34,0,0,1,3.46,10.66Zm5.43-14h-7.55a25.36,25.36,0,0,0-3.14-6.81A23.46,23.46,0,0,1,147.84,301.34Zm-24.11-6.81a25.67,25.67,0,0,0-3.15,6.81H113A23.55,23.55,0,0,1,123.73,294.53Z" style="fill:none;stroke:#263238;stroke-miterlimit:10"></path></g><g id="freepik--Plants--inject-407"><path d="M377.1,411.45S346,356.9,353.21,343s25.48,11.1,25.48,11.1-15.93-50.85-7.16-73,23.89,0,24.68,15.71S393,339.33,393,339.33s6.37-55.47,21.5-38.83-19.11,72.12-19.11,72.12,23.09-12.95,22.29,3.69-27.87,31.44-27.87,31.44" style="fill:#7E57C2"></path><path d="M377.36,401.28s-28.74-26.81-14.74-38.83S384,375.39,384,375.39s-15.48-76.74,9.58-79.51,6.63,66.57,6.63,66.57,21.37-29.59,19.9-5.55S387,401.28,387,401.28" style="fill:none;stroke:#263238;stroke-miterlimit:10"></path><line x1="391.48" y1="396.4" x2="372.06" y2="375.35" style="fill:none;stroke:#263238;stroke-miterlimit:10"></line><line x1="387.43" y1="398.02" x2="392.7" y2="336.5" style="fill:none;stroke:#263238;stroke-miterlimit:10"></line><line x1="386.63" y1="393.56" x2="404.03" y2="370.5" style="fill:none;stroke:#263238;stroke-miterlimit:10"></line><polygon points="411.8 389.27 358.07 389.27 363.44 452.64 406.42 452.64 411.8 389.27" style="fill:#263238"></polygon></g><g id="freepik--Floor--inject-407"><line x1="66" y1="452.64" x2="49" y2="452.64" style="fill:none;stroke:#263238;stroke-miterlimit:10"></line><line x1="463" y1="452.64" x2="86" y2="452.64" style="fill:none;stroke:#263238;stroke-miterlimit:10"></line></g><g id="freepik--Character--inject-407"><ellipse cx="296.5" cy="468.5" rx="60.5" ry="11.5" style="fill:#7E57C2"></ellipse><ellipse cx="296.5" cy="468.5" rx="60.5" ry="11.5" style="fill:#fff;opacity:0.5"></ellipse><polygon points="192.33 166.17 197.6 152.1 201.41 160.89 192.33 166.17" style="fill:#fff;stroke:#263238;stroke-linecap:round;stroke-linejoin:round"></polygon><path d="M207.8,151.9a88.12,88.12,0,0,1-9.32-12.4c-3.51-5.86-6.15-8.5-9.38-8.5s-8.2.88-12,0-13.78-9.38-13.78-4.4,4.69,6.74,7.33,7a45.51,45.51,0,0,1,7.52,2.06,22.19,22.19,0,0,1-5.76,5c-3.52,2.05-11.14.88-8.21,3.52s8.5,6.74,12,6.74,14.95-4.69,14.95-4.69l7.91,14.95Z" style="fill:#fff;stroke:#263238;stroke-linecap:round;stroke-linejoin:round"></path><path d="M198.48,139.5a36.57,36.57,0,0,0-3.77-5.39c-1,10.71-7.16,13.4-7.16,13.4l.09.1c2-.77,3.52-1.37,3.52-1.37l1.9,3.6a15.25,15.25,0,0,0,6.09-9.24Z" style="fill:#7E57C2;stroke:#263238;stroke-linecap:round;stroke-linejoin:round"></path><path d="M166.25,144.27s2.45-7.4,1.72-10.11-3-.65-3.74,1.74-2.08,6.62-1.86,8.3S163.88,148.29,166.25,144.27Z" style="fill:#fff;stroke:#263238;stroke-linecap:round;stroke-linejoin:round"></path><path d="M163.06,149.33a8.45,8.45,0,0,0,4.3-.29c2.52-.76,4.88-.23,5.49-2s-.21-3.67-2.45-3.26-6.91,1.31-7.86,1.88S161.52,147.74,163.06,149.33Z" style="fill:#fff;stroke:#263238;stroke-linecap:round;stroke-linejoin:round"></path><path d="M165.12,146.46s.49-7.78-.9-10.22-3.05.13-3.18,2.63-.34,6.93.31,8.51S163.84,151,165.12,146.46Z" style="fill:#fff;stroke:#263238;stroke-linecap:round;stroke-linejoin:round"></path><path d="M181.19,145.39s5-9.54,7.87-10.75a4.62,4.62,0,0,1,6.36,4.54,9,9,0,0,1-4.84,8c-2.43,1.06-7.72,2.88-7.72,2.88Z" style="fill:#fff;stroke:#263238;stroke-linecap:round;stroke-linejoin:round"></path><path d="M169.19,151.47a9.07,9.07,0,0,0,4.35-1.51c2.39-1.5,5-1.62,5.11-3.59s-1.25-3.73-3.45-2.67-6.76,3.31-7.58,4.17S167.15,150.26,169.19,151.47Z" style="fill:#7E57C2;stroke:#263238;stroke-linecap:round;stroke-linejoin:round"></path><path d="M170.5,147.92s-1.7-8.17-3.82-10.29-3.11,1-2.53,3.61,1.61,7.25,2.72,8.7S170.45,152.92,170.5,147.92Z" style="fill:#fff;stroke:#263238;stroke-linecap:round;stroke-linejoin:round"></path><path d="M175.74,153.56a9.07,9.07,0,0,0,4.24-1.82c2.27-1.66,4.84-2,4.84-3.93s-1.51-3.63-3.63-2.42-6.51,3.78-7.26,4.69S173.62,152.5,175.74,153.56Z" style="fill:#7E57C2;stroke:#263238;stroke-linecap:round;stroke-linejoin:round"></path><path d="M176.8,149.93s-2.27-8-4.54-10-3,1.21-2.27,3.78,2.12,7.12,3.33,8.48S177.1,154.92,176.8,149.93Z" style="fill:#fff;stroke:#263238;stroke-linecap:round;stroke-linejoin:round"></path><path d="M173.53,129.35a4.81,4.81,0,0,1,.09,2.56,2.34,2.34,0,0,1-2.68,1.77,48.5,48.5,0,0,1,7.22,2c1.43-.72,1.07-3,.69-4.43a13.78,13.78,0,0,1-1.76-.27A15.62,15.62,0,0,1,173.53,129.35Z" style="fill:#7E57C2;stroke:#263238;stroke-linecap:round;stroke-linejoin:round"></path><path d="M264.43,324.49s-1.29,11.63.33,21.32,3.87,37.8,5.49,49.43a183.31,183.31,0,0,1,1.29,31.67c-.32,9-3.55,19.06-8.08,24.23s-10.66,11-10,13.57,16.47,1.61,23.26.32,11-3.88,12-7.11,1.62-12.27,1.62-15.51-1.94-8.72-3.23-11.3-1.94-9.05-1.29-16.48,5.81-26.49,6.46-44.59-5.17-31.33-5.5-34.24,0-10.66,0-10.66Z" style="fill:#fff;stroke:#263238;stroke-linecap:round;stroke-linejoin:round"></path><path d="M285.76,414.63c.64-7.43,5.81-26.49,6.46-44.59s-5.17-31.33-5.5-34.24,0-10.66,0-10.66L283.1,325c-.84,4.29-2.49,15.41.49,25.6,3.78,12.95,1.84,31.69.23,44.61s-2.26,26.17-1.3,27.14c.54.54,1.75.77,3-.57A64.12,64.12,0,0,1,285.76,414.63Z" style="fill:#7E57C2;stroke:#263238;stroke-linecap:round;stroke-linejoin:round"></path><path d="M287.08,337.38l-10.37,1.33,1.29,8.07,11.3-1.69C288.42,341.69,287.56,339.07,287.08,337.38Z" style="fill:#fff;stroke:#263238;stroke-linecap:round;stroke-linejoin:round"></path><ellipse cx="273.16" cy="347.43" rx="8.08" ry="14.86" transform="translate(-8.27 6.66) rotate(-1.38)" style="fill:#fff;stroke:#263238;stroke-linecap:round;stroke-linejoin:round"></ellipse><path d="M289.35,459.78c.86-2.89.79-12.29.91-16.16a.75.75,0,0,0-.3.09c-2.59,1.29-8.4,2.58-10.34,7.1s-2.91,11.64-8.08,13.25c-4,1.26-14,.56-18.13.18a1.45,1.45,0,0,0,0,.47c.64,2.58,16.6,2.16,23.26.32C285.94,462.47,288.38,463,289.35,459.78Z" style="fill:#7E57C2;stroke:#263238;stroke-linecap:round;stroke-linejoin:round"></path><path d="M285.94,426.94a49.15,49.15,0,0,1-.39-9,22.32,22.32,0,0,1-13.85,1.2c0,2.7-.07,5.29-.16,7.73,0,.29,0,.58-.05.87C275.82,429,281.82,428.06,285.94,426.94Z" style="fill:#263238;stroke:#263238;stroke-linecap:round;stroke-linejoin:round"></path><path d="M287.05,431.11a14.36,14.36,0,0,1-1.11-4.17s-10.85,5.14-8.26,9c1.8,2.71,7.06-.87,10.07-3.29C287.51,432.08,287.27,431.55,287.05,431.11Z" style="fill:#7E57C2;stroke:#263238;stroke-linecap:round;stroke-linejoin:round"></path><path d="M268.63,445.65l-1.55-.2a25.17,25.17,0,0,1-3.62,5.69l-.84.95c0,.12-.08.22-.13.34-1.93,5.49-1.93,5.82,1.3,5.49s8.72-3.87,8.72-8.07A3.91,3.91,0,0,0,268.63,445.65Z" style="fill:#7E57C2;stroke:#263238;stroke-linecap:round;stroke-linejoin:round"></path><path d="M279.29,327.72s-1.29,7.11,5.82,28.76,22.62,66.23,24.55,74.3,3.88,31.67,11,39.42,11.63,7.75,12.6-1-.65-16.8-7.43-33c-3.14-7.47-7.43-19.07-8.4-25.53s-.33-39.74-3.56-51-8.4-16.48-11.3-22.94a64,64,0,0,1-3.88-10.66Z" style="fill:#fff;stroke:#263238;stroke-linecap:round;stroke-linejoin:round"></path><path d="M302.56,336.77a64,64,0,0,1-3.88-10.66l-3.5.29c1.39,6,4.79,19.24,9.64,28.46,6.46,12.28,8.07,32.63,10.34,44.26a51.8,51.8,0,0,0,1.92,7.27c-.53-11.3-.45-37-3.22-46.68C310.63,348.4,305.46,343.23,302.56,336.77Z" style="fill:#7E57C2;stroke:#263238;stroke-linecap:round;stroke-linejoin:round"></path><path d="M302.56,336.77a1,1,0,0,1-.07-.15l-8.33,3.7,6.13,10.34,7.95-4C306.13,343.05,304.05,340.08,302.56,336.77Z" style="fill:#263238;stroke:#263238;stroke-linecap:round;stroke-linejoin:round"></path><ellipse cx="292.22" cy="347.91" rx="9.05" ry="15.99" transform="translate(-90.93 103.72) rotate(-17.46)" style="fill:#fff;stroke:#263238;stroke-linecap:round;stroke-linejoin:round"></ellipse><path d="M306.86,421.45c.82,2.56,1.51,4.76,2,6.48,3.25.93,8.26,1.45,12.53-2-.77-2.24-1.48-4.51-2.08-6.68C316.43,420.39,311.31,422.06,306.86,421.45Z" style="fill:#263238;stroke:#263238;stroke-linecap:round;stroke-linejoin:round"></path><path d="M328.17,453.3a4.82,4.82,0,0,0-5-3.18c-2,.19-4.45.82-5.76,2.63-2.59,3.56,1,11,6.78,12.28C329.19,466.14,330.37,459.65,328.17,453.3Z" style="fill:#7E57C2;stroke:#263238;stroke-linecap:round;stroke-linejoin:round"></path><path d="M325.82,436.28c-1.28-3-2.74-6.75-4.09-10.52l-.33.13s.22,8.77,2.8,12c1.08,1.35,1.93,1.34,2.56.67C326.45,437.81,326.15,437.06,325.82,436.28Z" style="fill:#7E57C2;stroke:#263238;stroke-linecap:round;stroke-linejoin:round"></path><path d="M312.25,443.06c2.58,0,1.61-5.17-.65-10a18.28,18.28,0,0,0-2.38-3.95c.18.66.34,1.24.44,1.68.65,2.71,1.31,7.17,2.15,12.19A1.38,1.38,0,0,0,312.25,443.06Z" style="fill:#7E57C2;stroke:#263238;stroke-linecap:round;stroke-linejoin:round"></path><path d="M251.54,229.68s-5.48,9-5.48,32.43,9.77,63.31,9.77,63.31a94,94,0,0,0,25,7.43,81.9,81.9,0,0,0,28.92-1.17s15.24-41,18.36-63.31-1.17-34-1.17-34l-70.34-11Z" style="fill:#263238;stroke:#263238;stroke-linecap:round;stroke-linejoin:round"></path><path d="M282.31,123.08s-26.38,8.5-27.26,10.26S232.48,173,232.48,173l-25.31-22-14.84,15.22s34.58,34.29,37.52,35.47,2.93,2.63,4.39,1.46,25.5-22,25.5-22,5,12.9,4.69,17.29-17,33.42-17,33.42,6.16,11.72,12.9,16.41,12.31,8.5,12.31,8.5l6.15-15,4.11,15.83s7.91-.59,22.27-4.4S331,240.33,331,240.33l-13.49-42.21,14.37-27.85,30.48,32.25s13.65-1.79,21.78-4.11c4.4-1.26-10.94-19.64-16.5-27.26S350.9,141.55,346.8,136s-38.69-15.53-38.69-15.53S287.88,119,282.31,123.08Z" style="fill:#263238;stroke:#263238;stroke-linecap:round;stroke-linejoin:round"></path><ellipse cx="303.16" cy="164.75" rx="6.33" ry="6.13" style="fill:#7E57C2"></ellipse><path d="M259.74,181.12a44.71,44.71,0,0,1-2.34-13.48c0-7,4.39-20.52,4.39-20.52" style="fill:none;stroke:#696969;stroke-linecap:round;stroke-linejoin:round"></path><polyline points="322.52 162.07 331.85 170.27 321.75 166.67" style="fill:none;stroke:#696969;stroke-linecap:round;stroke-linejoin:round"></polyline><path d="M342.83,136s-8.81-1.53-14.56,11.5" style="fill:none;stroke:#696969;stroke-linecap:round;stroke-linejoin:round"></path><line x1="232.48" y1="172.95" x2="235.11" y2="176.64" style="fill:none;stroke:#696969;stroke-linecap:round;stroke-linejoin:round"></line><path d="M257,243.34l15.68,13.4,6.15-15,4.11,15.83s20.45-.86,43.07-14.28" style="fill:none;stroke:#696969;stroke-linecap:round;stroke-linejoin:round"></path><path d="M286.46,115.84s-3.28.18-6,5.65-5.83,18.24-9.85,22.62-2.73,4.56-.54,4,8.57-4.74,8.57-4.74.36,9.66,1.64,14.22.18,16.78,1.27,21.52a35.1,35.1,0,0,1,1.1,6s6.2-18.78,9.48-24.44S301.6,145,301.6,145L314.36,152s-.18-11.85-.55-18,4-13.5-.91-17.69S286.46,115.84,286.46,115.84Z" style="fill:#fff;stroke:#263238;stroke-linecap:round;stroke-linejoin:round"></path><path d="M285,105.08s-.36,8.76,0,18.6-.18,38.85-.18,38.85,22.61-38.66,24.62-41.58l1.09-17.87S295,111.1,285,105.08Z" style="fill:#fff;stroke:#263238;stroke-linecap:round;stroke-linejoin:round"></path><path d="M285,105.08s-.28,6.76-.1,15.07a16.65,16.65,0,0,0,8.75,5.36c5.34,1.34,10.34-.28,14.52-2.55.61-1,1.06-1.71,1.27-2l1.09-17.87S295,111.1,285,105.08Z" style="fill:#7E57C2;stroke:#263238;stroke-linecap:round;stroke-linejoin:round"></path><path d="M310.53,103.08s-15.5,8-25.53,2c0,0-.13,3.2-.16,7.89,2.69,2.62,8.34,7.83,10.83,7.83s10-5.3,14.29-8.42Z" style="fill:#263238;stroke:#263238;stroke-linecap:round;stroke-linejoin:round"></path><path d="M278.4,76.58a10.07,10.07,0,0,0-1.83,1.07c-1.33.07-2.25,3.42-2.05,7.49s1.45,7.32,2.78,7.25h0a9.83,9.83,0,0,0,1.93.89c1.51-.07,2.55-3.87,2.32-8.48S279.91,76.5,278.4,76.58Z" style="fill:#fff;stroke:#263238;stroke-linecap:round;stroke-linejoin:round"></path><path d="M293,50.27a20.43,20.43,0,0,0-15.42,10.92c-3.92,7.67-1.07,12.2-1.07,18.2s3,21.84,4.07,23.55,9.85,12.85,14.35,13.49,16.27-9.85,18.2-13.06S317,87.31,317.83,79.6s.21-20.77-4.71-24.84S299.63,49.41,293,50.27Z" style="fill:#fff;stroke:#263238;stroke-linecap:round;stroke-linejoin:round"></path><path d="M314.54,82.63H310.6s.44-2.78-3.81-5.12c-2.19-1.21-4.53.18-6.29,1.82a9.21,9.21,0,0,0-2.91,6.46l-.77,8.86A1.68,1.68,0,0,1,295,96.27h0a1.68,1.68,0,0,1-1.53-1.56c-.24-3.74-.65-15.11-3.82-16.91-5.42-3.08-8.21,3.81-8.21,3.81H279" style="fill:none;stroke:#263238;stroke-linecap:round;stroke-linejoin:round"></path><path d="M306.71,86.88a2.65,2.65,0,0,0,.29-1.19,2.82,2.82,0,0,0-5.64,0,2.65,2.65,0,0,0,.29,1.19Z" style="fill:#263238;stroke:#263238;stroke-linecap:round;stroke-linejoin:round"></path><path d="M290.15,86.88a2.65,2.65,0,0,0,.29-1.19,2.82,2.82,0,0,0-5.64,0,2.65,2.65,0,0,0,.29,1.19Z" style="fill:#263238;stroke:#263238;stroke-linecap:round;stroke-linejoin:round"></path><path d="M300.63,102.13c-1.9,1.46-3.81,1.32-6.89,1.17s-3.81-1.61-3.81-1.61l3.52-1,1.47,1.61,1.46-1.32Z" style="fill:#7E57C2;stroke:#263238;stroke-linecap:round;stroke-linejoin:round"></path><path d="M291,102.86a6.57,6.57,0,0,0,3.37,3.22c2.34.88,4.54-2.78,4.54-2.78S293.6,103.59,291,102.86Z" style="fill:#7E57C2;stroke:#263238;stroke-linecap:round;stroke-linejoin:round"></path><path d="M293,50.27a20.61,20.61,0,0,0-8.93,3.49,28.33,28.33,0,0,0,0,6.31c.59,4.1,4.25,9.81,4.25,9.81h14.8a29,29,0,0,0,6.16-10.69c.86-2.65,1.47-4.5,1.9-5.78C306.15,50.42,298.83,49.51,293,50.27Z" style="fill:#7E57C2;stroke:#263238;stroke-linecap:round;stroke-linejoin:round"></path><path d="M312.79,69.74c0,1.46,2.79,9.52,2.79,12.46s-1.91,9.37-4.25,11.13-3.08,3.37-3.37,6.31c-.22,2.14-.12,6.87,0,9.25a31.53,31.53,0,0,0,5.21-5.52c1.93-3.21,3.85-16.06,4.71-23.77.57-5.13.47-12.64-1.12-18.28C315.38,63.76,312.79,68.65,312.79,69.74Z" style="fill:#7E57C2;stroke:#263238;stroke-linecap:round;stroke-linejoin:round"></path><path d="M318.74,91.09A21.91,21.91,0,0,0,319.45,79l.08-1.31-1-.58a1.27,1.27,0,0,0-.87-.52c-1.51-.08-2.95,3.58-3.22,8.19s.74,8.43,2.25,8.51a1.26,1.26,0,0,0,.92-.41l1-.46Z" style="fill:#fff;stroke:#263238;stroke-linecap:round;stroke-linejoin:round"></path><path d="M321.51,85.17c-.24,4.07-1.51,7.31-2.85,7.23s-2.21-3.44-2-7.51,1.51-7.3,2.85-7.22S321.74,81.11,321.51,85.17Z" style="fill:#fff;stroke:#263238;stroke-linecap:round;stroke-linejoin:round"></path><path d="M283,95c-2.34-2.94-3.51-6.89-4-11.14s.73-14.07.73-14.51-1.85-5.08-2.68-7.19c-3.24,7.12-.64,11.53-.64,17.28,0,6,3,21.84,4.07,23.55a57.89,57.89,0,0,0,4,5.09C284.33,102.59,285,97.34,283,95Z" style="fill:#7E57C2;stroke:#263238;stroke-linecap:round;stroke-linejoin:round"></path><path d="M301.66,113.74c-1.86-2-5.12-5.36-6.63-5.74s-4.37,3.12-5.66,5c2,1.84,4,3.26,5.55,3.47S299,115.48,301.66,113.74Z" style="fill:#7E57C2;stroke:#263238;stroke-linecap:round;stroke-linejoin:round"></path><path d="M332.78,214.82s-12.23-11.25-14.19-11.74-13,5.06-13,6.52,2.44,1.31,4.89.66,7.17-2.45,7.17-2.45,5.22,12.07,6.85,14,2.77,4.73,6,3.75a13.92,13.92,0,0,0,5.06-2.6Z" style="fill:#fff;stroke:#263238;stroke-linecap:round;stroke-linejoin:round"></path><path d="M319.9,211.56a34.86,34.86,0,0,0,4.07,3.26c.82.33,2.45,0,1.31-3.42s-3.75-5.38-4.9-5.55S318.43,210.42,319.9,211.56Z" style="fill:#7E57C2;stroke:#263238;stroke-linecap:round;stroke-linejoin:round"></path><path d="M318.92,205s-10.44,6.2-10.77,8.31,2.41,1.3,4.73.66c2.94-.82,7.83-2,8.48-4.73S321.85,204.55,318.92,205Z" style="fill:#fff;stroke:#263238;stroke-linecap:round;stroke-linejoin:round"></path><path d="M321.36,215.31a34.26,34.26,0,0,0,4.08,3.26c.81.33,2.45,0,1.3-3.42s-3.75-5.38-4.89-5.55S319.9,214.17,321.36,215.31Z" style="fill:#7E57C2;stroke:#263238;stroke-linecap:round;stroke-linejoin:round"></path><path d="M320.38,208.79S310,215,309.62,217.11s2.41,1.29,4.73.65c2.94-.82,7.83-2,8.48-4.73S323.32,208.3,320.38,208.79Z" style="fill:#fff;stroke:#263238;stroke-linecap:round;stroke-linejoin:round"></path><path d="M322.37,218.66a31,31,0,0,0,3.58,2.86c.72.29,2.15,0,1.14-3s-3.29-4.72-4.29-4.86S321.08,217.66,322.37,218.66Z" style="fill:#7E57C2;stroke:#263238;stroke-linecap:round;stroke-linejoin:round"></path><path d="M321.51,212.93s-9.16,5.44-9.45,7.3,2.12,1.14,4.16.57c2.57-.71,6.87-1.71,7.44-4.15S324.09,212.5,321.51,212.93Z" style="fill:#fff;stroke:#263238;stroke-linecap:round;stroke-linejoin:round"></path><path d="M359.28,188.67s-16.88,19.12-19.23,20.88a83.07,83.07,0,0,1-7.91,4.69L336,227.72s24-11.72,33.71-17.88,16.7-9.67,16.41-12.6-10.55-12.9-10.55-12.9" style="fill:#263238;stroke:#263238;stroke-linecap:round;stroke-linejoin:round"></path><line x1="354.34" y1="193.89" x2="362" y2="184.69" style="fill:none;stroke:#696969;stroke-linecap:round;stroke-linejoin:round"></line><path d="M300.7,135.49c-6.59,1.71-11.05,8.42-11.05,8.42A75.28,75.28,0,0,0,285.12,133c0,12.41-.3,29.56-.3,29.56S293.6,147.52,300.7,135.49Z" style="fill:#7E57C2;stroke:#263238;stroke-linecap:round;stroke-linejoin:round"></path></g></svg>
