<?xml version="1.0" encoding="iso-8859-1"?>
<!-- Generator: Adobe Illustrator 19.0.0, SVG Export Plug-In . SVG Version: 6.00 Build 0)  -->
<svg version="1.1" id="Capa_1" xmlns="http://www.w3.org/2000/svg" xmlns:xlink="http://www.w3.org/1999/xlink" x="0px" y="0px"
	 viewBox="0 0 512 512" style="enable-background:new 0 0 512 512;" xml:space="preserve">
<g>
	<g>
		<g>
			<path d="M297.892,221.867h-83.783c-4.713,0-8.533,3.82-8.533,8.533s3.82,8.533,8.533,8.533h83.783
				c4.713,0,8.533-3.82,8.533-8.533S302.604,221.867,297.892,221.867z"/>
			<path d="M221.867,204.8c4.713,0,8.533-3.82,8.533-8.533V179.2c0-4.713-3.821-8.533-8.533-8.533c-4.713,0-8.533,3.82-8.533,8.533
				v17.067C213.333,200.979,217.154,204.8,221.867,204.8z"/>
			<path d="M290.133,204.8c4.713,0,8.533-3.82,8.533-8.533V179.2c0-4.713-3.82-8.533-8.533-8.533s-8.533,3.82-8.533,8.533v17.067
				C281.6,200.979,285.421,204.8,290.133,204.8z"/>
			<path d="M366.933,0H145.067c-23.553,0.028-42.639,19.114-42.667,42.667v426.667c0.028,23.553,19.114,42.639,42.667,42.667
				h221.867c23.553-0.028,42.639-19.114,42.667-42.667V42.667C409.572,19.114,390.486,0.028,366.933,0z M310.458,17.067
				l-6.175,12.35c-1.437,2.897-4.395,4.727-7.629,4.717h-81.308c-3.234,0.01-6.192-1.819-7.629-4.717l-6.175-12.35H310.458z
				 M392.533,469.333c-0.015,14.132-11.468,25.585-25.6,25.6H145.067c-14.132-0.015-25.585-11.468-25.6-25.6V42.667
				c0.015-14.132,11.468-25.585,25.6-25.6h37.392l9.992,19.983c4.312,8.694,13.191,14.182,22.896,14.15h81.308
				c9.705,0.032,18.584-5.456,22.896-14.15l9.992-19.983h37.392c14.132,0.015,25.585,11.468,25.6,25.6V469.333z"/>
			<path d="M307.2,460.8H204.8c-4.713,0-8.533,3.82-8.533,8.533s3.82,8.533,8.533,8.533h102.4c4.713,0,8.533-3.82,8.533-8.533
				S311.913,460.8,307.2,460.8z"/>
			<path d="M341.333,247.467v-0.862c19.865-4.055,34.133-21.529,34.133-41.804c0-20.275-14.268-37.749-34.133-41.804v-0.862
				c-0.015-14.132-11.468-25.585-25.6-25.6H276.6l11.034-11.034c1.86-1.858,2.76-4.471,2.437-7.08s-1.831-4.925-4.087-6.274
				L264.016,98.99c2.72-12.423-3.928-24.994-15.727-29.74c-11.799-4.745-25.299-0.278-31.939,10.569s-4.476,24.902,5.117,33.25
				c9.593,8.349,23.812,8.55,33.638,0.477l12.723,7.62l-15.363,15.366h-56.2c-14.132,0.015-25.585,11.468-25.6,25.6v0.862
				c-19.865,4.055-34.133,21.529-34.133,41.804c0,20.275,14.268,37.749,34.133,41.804v0.862c0.015,14.132,11.468,25.585,25.6,25.6
				h27.172c-1.012,2.733-1.544,5.62-1.572,8.533v17.067c0.029,2.914,0.561,5.801,1.573,8.533h-27.173
				c-14.132,0.015-25.585,11.468-25.6,25.6c-18.842,0.022-34.112,15.291-34.133,34.133V435.2c0,4.713,3.82,8.533,8.533,8.533
				h221.867c4.713,0,8.533-3.82,8.533-8.533v-68.267c-0.022-18.842-15.291-34.112-34.133-34.133
				c-0.015-14.132-11.468-25.585-25.6-25.6h-27.172c1.012-2.733,1.544-5.62,1.572-8.533V281.6c-0.029-2.914-0.561-5.801-1.572-8.533
				h27.172C329.865,273.051,341.318,261.599,341.333,247.467z M341.333,180.663c10.229,3.617,17.067,13.288,17.067,24.137
				c0,10.849-6.838,20.52-17.067,24.138V180.663z M238.933,102.4c-4.713,0-8.533-3.821-8.533-8.533c0-4.713,3.82-8.533,8.533-8.533
				s8.533,3.821,8.533,8.533C247.461,98.577,243.644,102.394,238.933,102.4z M170.667,228.938
				C160.438,225.32,153.6,215.649,153.6,204.8c0-10.849,6.838-20.52,17.067-24.137V228.938z M170.667,426.667H153.6v-59.733
				c0.009-9.422,7.645-17.057,17.067-17.067V426.667z M341.333,349.867c9.422,0.009,17.057,7.645,17.067,17.067v59.733h-17.067
				V349.867z M290.133,426.667h-68.267V358.4h68.267V426.667z M315.733,324.267c4.71,0.006,8.527,3.823,8.533,8.533v93.867H307.2
				V358.4c-0.009-9.422-7.645-17.057-17.067-17.067h-68.267c-9.422,0.009-17.057,7.645-17.067,17.067v68.267h-17.067V332.8
				c0.006-4.71,3.823-8.527,8.533-8.533H315.733z M238.933,298.667V281.6c0.006-4.71,3.823-8.527,8.533-8.533h17.067
				c4.71,0.006,8.527,3.823,8.533,8.533v17.067c-0.006,4.71-3.823,8.527-8.533,8.533h-17.067
				C242.756,307.194,238.939,303.377,238.933,298.667z M264.533,256h-68.267c-4.71-0.006-8.527-3.823-8.533-8.533v-85.333
				c0.006-4.71,3.823-8.527,8.533-8.533h119.467c4.71,0.006,8.527,3.823,8.533,8.533v85.333c-0.006,4.71-3.823,8.527-8.533,8.533
				H264.533z"/>
		</g>
	</g>
</g>
<g>
</g>
<g>
</g>
<g>
</g>
<g>
</g>
<g>
</g>
<g>
</g>
<g>
</g>
<g>
</g>
<g>
</g>
<g>
</g>
<g>
</g>
<g>
</g>
<g>
</g>
<g>
</g>
<g>
</g>
</svg>
