<?xml version="1.0" encoding="iso-8859-1"?>
<!-- Generator: Adobe Illustrator 19.0.0, SVG Export Plug-In . SVG Version: 6.00 Build 0)  -->
<svg version="1.1" id="Capa_1" xmlns="http://www.w3.org/2000/svg" xmlns:xlink="http://www.w3.org/1999/xlink" x="0px" y="0px"
	 viewBox="0 0 511.998 511.998" style="enable-background:new 0 0 511.998 511.998;" xml:space="preserve">
<g>
	<g>
		<path d="M444.986,447.439c0-0.044-0.008-0.087-0.009-0.132c-0.004-0.236-0.02-0.473-0.05-0.71
			c-0.006-0.048-0.009-0.097-0.016-0.145c-0.04-0.275-0.1-0.549-0.176-0.821c-0.017-0.062-0.039-0.121-0.058-0.182
			c-0.065-0.209-0.14-0.415-0.226-0.62c-0.031-0.073-0.061-0.145-0.094-0.217c-0.025-0.053-0.043-0.107-0.069-0.16
			c-0.094-0.191-0.199-0.374-0.308-0.552c-0.004-0.006-0.007-0.012-0.01-0.018c-0.155-0.251-0.328-0.485-0.511-0.709
			c-0.026-0.032-0.055-0.063-0.082-0.095c-0.172-0.202-0.353-0.393-0.545-0.571c-0.023-0.021-0.044-0.043-0.067-0.064
			c-0.224-0.203-0.459-0.391-0.707-0.56c-0.004-0.003-0.008-0.005-0.013-0.008c-0.241-0.164-0.493-0.309-0.752-0.441
			c-0.02-0.01-0.038-0.024-0.059-0.034l-18.651-9.219V380.2l13.039-6.431c2.158-1.065,3.584-3.2,3.74-5.601
			c0.103-1.572-0.357-3.096-1.243-4.339l-38.928-62.82c-0.731-1.251-1.809-2.191-3.054-2.748c-0.097-0.044-0.198-0.078-0.297-0.117
			c-0.098-0.038-0.194-0.082-0.294-0.115c-1.703-0.58-3.623-0.47-5.313,0.423l-39.025,19.251c-0.222,0.107-0.441,0.224-0.652,0.356
			l-17.723,11.106V176.594l13.065-6.444c1.378-0.68,2.414-1.772,3.047-3.05c0.234-0.467,0.422-0.959,0.543-1.476
			c0.409-1.739,0.109-3.569-0.833-5.086L309.42,97.209c-1.724-2.773-5.136-3.855-8.081-2.748c-0.166,0.061-0.33,0.135-0.493,0.21
			c-0.03,0.014-0.061,0.025-0.091,0.039c-0.024,0.011-0.049,0.02-0.072,0.031l-39.199,19.337c-0.221,0.107-0.439,0.223-0.65,0.354
			l-36.559,22.914l-4.606-7.434c-0.02-0.031-0.043-0.059-0.063-0.09c-0.058-0.09-0.121-0.176-0.183-0.264
			c-0.092-0.129-0.188-0.255-0.287-0.376c-0.071-0.086-0.142-0.172-0.218-0.255c-0.116-0.127-0.238-0.247-0.363-0.364
			c-0.076-0.071-0.148-0.144-0.227-0.212c-0.174-0.149-0.356-0.287-0.542-0.417c-0.035-0.024-0.065-0.053-0.1-0.077
			c-0.072-0.048-0.15-0.084-0.224-0.129c-0.107-0.065-0.215-0.128-0.325-0.187c-0.129-0.069-0.258-0.137-0.39-0.198
			c-0.072-0.033-0.146-0.06-0.219-0.09c-0.311-0.13-0.629-0.236-0.953-0.316c-0.037-0.009-0.073-0.021-0.11-0.029
			c-0.18-0.042-0.361-0.073-0.544-0.1c-0.052-0.008-0.103-0.014-0.155-0.02c-0.597-0.073-1.2-0.067-1.797,0.021
			c-0.026,0.004-0.051,0.006-0.077,0.01c-0.191,0.03-0.38,0.071-0.569,0.118c-0.043,0.011-0.086,0.023-0.129,0.034
			c-0.418,0.113-0.831,0.253-1.228,0.448l-39.203,19.335c-0.222,0.107-0.441,0.223-0.652,0.355l-12.132,7.602V26.562
			c0.001-0.009,0.003-0.017,0.003-0.026c0.157-2.401-0.979-4.703-2.98-6.04c-0.285-0.19-0.583-0.35-0.888-0.493L116.008,0.71
			c-0.81-0.404-1.685-0.638-2.571-0.695c-0.228-0.015-0.456-0.009-0.684,0c-0.061,0.002-0.121-0.004-0.182,0
			c-0.89,0.057-1.768,0.292-2.581,0.699L70.974,19.956c-0.026,0.012-0.051,0.026-0.076,0.038l-0.129,0.064
			c-0.028,0.014-0.052,0.034-0.08,0.048c-0.168,0.086-0.338,0.167-0.499,0.268c-0.111,0.069-0.21,0.151-0.316,0.226
			c-0.055,0.038-0.109,0.076-0.162,0.116c-0.576,0.432-1.074,0.943-1.478,1.521c-0.02,0.029-0.037,0.06-0.057,0.089
			c-0.174,0.258-0.329,0.527-0.466,0.806c-0.029,0.059-0.058,0.118-0.085,0.179c-0.129,0.285-0.241,0.577-0.33,0.878
			c-0.01,0.032-0.023,0.063-0.032,0.096c-0.095,0.339-0.164,0.686-0.204,1.04c-0.005,0.047-0.005,0.095-0.009,0.143
			c-0.019,0.209-0.04,0.417-0.04,0.629v318.73c-0.002,2.565,1.455,4.907,3.757,6.039l325.25,160.434
			c0.236,0.117,0.478,0.219,0.724,0.307c0.028,0.01,0.058,0.016,0.087,0.026c0.292,0.1,0.592,0.175,0.895,0.233
			c0.085,0.016,0.169,0.031,0.254,0.044c0.337,0.052,0.677,0.087,1.02,0.087c0.001,0,0.003,0,0.004,0c0.001,0,0.002,0,0.002,0
			c0.011,0,0.022-0.002,0.033-0.002c0.233-0.001,0.464-0.015,0.694-0.04c0.064-0.007,0.127-0.019,0.191-0.028
			c0.18-0.025,0.358-0.054,0.535-0.093c0.067-0.015,0.133-0.033,0.199-0.05c0.177-0.045,0.353-0.096,0.525-0.155
			c0.055-0.019,0.11-0.039,0.165-0.059c0.195-0.073,0.386-0.154,0.574-0.244c0.019-0.009,0.039-0.015,0.057-0.024l0.123-0.061
			c0.028-0.015,0.057-0.027,0.085-0.042l39.042-19.259c0.018-0.009,0.033-0.019,0.051-0.028c0.151-0.076,0.299-0.16,0.444-0.248
			c0.05-0.03,0.101-0.059,0.15-0.09c0.133-0.085,0.261-0.177,0.388-0.271c0.056-0.041,0.113-0.081,0.167-0.124
			c0.112-0.089,0.22-0.185,0.327-0.281c0.06-0.054,0.121-0.106,0.179-0.162c0.026-0.025,0.054-0.047,0.079-0.072
			c0.073-0.073,0.137-0.152,0.206-0.227c0.056-0.061,0.113-0.121,0.166-0.184c0.091-0.108,0.176-0.219,0.259-0.332
			c0.046-0.061,0.093-0.122,0.137-0.184c0.084-0.121,0.16-0.245,0.236-0.371c0.036-0.059,0.073-0.117,0.106-0.177
			c0.074-0.132,0.141-0.268,0.206-0.405c0.027-0.058,0.056-0.115,0.082-0.174c0.061-0.139,0.115-0.282,0.167-0.425
			c0.022-0.061,0.045-0.121,0.065-0.183c0.046-0.14,0.085-0.282,0.122-0.425c0.018-0.07,0.037-0.14,0.053-0.211
			c0.03-0.134,0.053-0.268,0.075-0.404c0.014-0.084,0.027-0.168,0.038-0.253c0.015-0.123,0.025-0.247,0.033-0.371
			c0.007-0.1,0.013-0.199,0.015-0.3c0.001-0.047,0.007-0.092,0.007-0.139V447.439z M113.002,14.247l24.024,11.856l-24.02,11.847
			L88.975,26.097L113.002,14.247z M211.443,142.203l23.799,38.412v17.489l-18.798,9.289l-32.12-51.815L211.443,142.203z
			 M330.143,346.753l21.837-13.682l24.171,39c-3.555,0.214-6.327,3.162-6.322,6.723v65.836l-31.388-15.484l0-33.795
			c0.016-0.227,0.007-0.451,0-0.676l0-38.013c0.002-2.565-1.455-4.907-3.757-6.039l-5.205-2.571
			c-0.251-0.146-0.51-0.281-0.781-0.395l0.452-0.283C329.498,347.198,329.829,346.989,330.143,346.753z M390.878,313.154
			l32.115,51.826l-27.103,13.368l-32.121-51.82L390.878,313.154z M415.829,443.873l7.2,3.558l-23.761,11.721l-7.208-3.556
			L415.829,443.873z M324.966,399.955V422.5l-22.852-11.273L324.966,399.955z M210.966,222.189c0.141,0.07,0.289,0.112,0.433,0.171
			c0.143,0.059,0.283,0.121,0.43,0.17c0.226,0.075,0.454,0.128,0.684,0.178c0.129,0.028,0.254,0.063,0.385,0.083
			c0.272,0.043,0.544,0.06,0.817,0.069c0.08,0.003,0.157,0.02,0.237,0.02c0.024,0,0.048-0.004,0.073-0.004
			c0.119-0.001,0.237-0.013,0.356-0.021c0.205-0.013,0.409-0.035,0.611-0.067c0.117-0.018,0.234-0.036,0.35-0.061
			c0.268-0.057,0.532-0.128,0.791-0.217c0.081-0.028,0.159-0.059,0.239-0.09c0.189-0.073,0.378-0.148,0.56-0.238l12.684-6.268
			V343.41l-25.763,12.707V218.682L210.966,222.189z M212.348,366.946l22.894-11.292v22.585L212.348,366.946z M172.532,162.123
			l24.171,39c-3.555,0.214-6.328,3.162-6.322,6.724V356.11l-31.382-15.48l0-154.908c0.001-1.111-0.286-2.173-0.783-3.121
			c-0.029-0.056-0.058-0.113-0.089-0.168c-0.086-0.153-0.175-0.302-0.272-0.448c-0.052-0.078-0.109-0.152-0.164-0.228
			c-0.142-0.195-0.293-0.382-0.456-0.56c-0.104-0.115-0.209-0.227-0.32-0.334c-0.08-0.076-0.161-0.15-0.245-0.222
			c-0.175-0.153-0.356-0.297-0.546-0.431c-0.026-0.018-0.049-0.038-0.075-0.056c-0.253-0.174-0.521-0.326-0.797-0.465
			c-0.003-0.002-0.006-0.004-0.01-0.006l-6-2.967L172.532,162.123z M145.525,317.192v16.791l-17.021-8.396L145.525,317.192z
			 M405.736,470.981l25.776-12.715v23.448l-25.776,12.715V470.981z M409.111,432.167l-25.809,12.729V389.63l7.105,3.5
			c0.113,0.056,0.232,0.088,0.347,0.137c0.182,0.078,0.363,0.156,0.552,0.218c0.176,0.057,0.354,0.097,0.532,0.139
			c0.18,0.043,0.357,0.089,0.541,0.117c0.202,0.031,0.404,0.039,0.606,0.051c0.137,0.008,0.269,0.035,0.407,0.035
			c0.042,0,0.083-0.006,0.125-0.007c0.063-0.001,0.125-0.008,0.188-0.011c0.271-0.013,0.54-0.042,0.807-0.088
			c0.072-0.012,0.143-0.023,0.215-0.037c0.32-0.065,0.637-0.147,0.945-0.258c0.003-0.001,0.007-0.003,0.01-0.004
			c0.232-0.085,0.461-0.181,0.684-0.291l12.743-6.285V432.167z M319.361,337.606l-8.06,5.05c-2.07,1.296-3.276,3.612-3.151,6.051
			c0.124,2.439,1.559,4.62,3.75,5.699l7.461,3.681V387.7l-25.783,12.719V186.005l7.105,3.507c0.112,0.056,0.231,0.088,0.345,0.136
			c0.183,0.078,0.365,0.158,0.556,0.22c0.175,0.057,0.351,0.096,0.528,0.138c0.181,0.043,0.36,0.09,0.545,0.118
			c0.2,0.03,0.399,0.039,0.6,0.051c0.138,0.008,0.273,0.035,0.413,0.035c0.043,0,0.085-0.007,0.128-0.007
			c0.061-0.001,0.121-0.008,0.182-0.011c0.274-0.013,0.545-0.042,0.814-0.088c0.07-0.012,0.14-0.023,0.21-0.037
			c0.321-0.065,0.639-0.147,0.948-0.259c0.001,0,0.002-0.001,0.003-0.001c0.235-0.085,0.466-0.183,0.69-0.294l12.717-6.272V337.606z
			 M274.045,122.902l27.154-13.395l32.114,51.832l-9.639,4.754c-0.373,0.144-0.729,0.321-1.066,0.526l-16.442,8.109L274.045,122.902
			z M262.256,129.446l0.946,1.526c0.103,0.184,0.213,0.363,0.332,0.536l22.893,36.938c-3.555,0.214-6.328,3.162-6.322,6.723v225.2
			l-31.388-15.484l0-33.854c0-0.001,0-0.003,0-0.004l0-148.443c0.006-0.14,0.002-0.28,0-0.421l0-23.212
			c0.001-0.024-0.001-0.047,0-0.071v-25.836c0.002-2.565-1.455-4.907-3.757-6.039l-5.993-2.961L262.256,129.446z M131.854,171.709
			c-2.07,1.296-3.276,3.612-3.151,6.051c0.124,2.439,1.559,4.62,3.75,5.699l13.053,6.444v112.28l-25.763,12.707V49.646
			l25.763-12.707v126.216L131.854,171.709z M392.262,494.426L80.486,340.636V36.932l25.776,12.714v275.799
			c0.001,0.021,0.006,0.041,0.007,0.062v0.215c0,0.083,0.014,0.162,0.017,0.244c0.004,0.11,0.014,0.22,0.023,0.331
			c0.023,0.266,0.061,0.527,0.114,0.785c0.012,0.058,0.012,0.116,0.025,0.174c0.009,0.037,0.025,0.07,0.035,0.106
			c0.076,0.302,0.172,0.596,0.288,0.882c0.018,0.045,0.031,0.093,0.05,0.137c0.142,0.331,0.309,0.649,0.502,0.952
			c0.027,0.042,0.059,0.079,0.087,0.12c0.164,0.246,0.343,0.482,0.539,0.705c0.07,0.079,0.145,0.152,0.218,0.228
			c0.166,0.172,0.339,0.336,0.524,0.491c0.095,0.079,0.191,0.155,0.29,0.229c0.176,0.131,0.36,0.252,0.55,0.367
			c0.117,0.071,0.231,0.142,0.352,0.205c0.049,0.026,0.093,0.058,0.142,0.083l65.503,32.312l18.609,9.182
			c0.01,0.005,0.021,0.008,0.031,0.013l134.542,66.368c0.004,0.002,0.008,0.005,0.013,0.007l10.597,5.226l52.942,26.116V494.426z"/>
	</g>
</g>
<g>
</g>
<g>
</g>
<g>
</g>
<g>
</g>
<g>
</g>
<g>
</g>
<g>
</g>
<g>
</g>
<g>
</g>
<g>
</g>
<g>
</g>
<g>
</g>
<g>
</g>
<g>
</g>
<g>
</g>
</svg>
