<svg height="512" viewBox="0 0 60 60" width="512" xmlns="http://www.w3.org/2000/svg"><g id="Page-1" fill="none" fill-rule="evenodd"><g id="004---Folder-Settings" fill="rgb(0,0,0)" fill-rule="nonzero"><path id="Shape" d="m54 13.08v-2.08c-.0033061-2.76005315-2.2399468-4.99669388-5-5h-17v-1c-.0033061-2.76005315-2.2399468-4.99669388-5-5h-22c-2.76005315.00330612-4.99669388 2.23994685-5 5v21c0 .5522847.44771525 1 1 1s1-.4477153 1-1v-21c0-1.65685425 1.34314575-3 3-3h22c1.6568542 0 3 1.34314575 3 3v2c0 .55228475.4477153 1 1 1h18c1.6568542 0 3 1.34314575 3 3v2h-28c-.5522847 0-1 .4477153-1 1s.4477153 1 1 1h29c2.7600532.0033061 4.9966939 2.2399468 5 5v29c-.0033061 2.7600532-2.2399468 4.9966939-5 5h-15c-.5522847 0-1 .4477153-1 1s.4477153 1 1 1h15c3.8641657-.0044086 6.9955914-3.1358343 7-7v-29c-.0040745-3.4765822-2.5590733-6.4233474-6-6.92z"/><path id="Shape" d="m19 15c.5522847 0 1-.4477153 1-1s-.4477153-1-1-1h-4c-.5522847 0-1 .4477153-1 1s.4477153 1 1 1z"/><path id="Shape" d="m0 32c0 1.6568542 1.34314575 3 3 3h15.812c1.0682518 1.8559567 3.0465666 2.9998902 5.188 2.9998902s4.1197482-1.1439335 5.188-2.9998902h2.812c1.6568542 0 3-1.3431458 3-3s-1.3431458-3-3-3h-2.812c-1.0682518-1.8559567-3.0465666-2.9998902-5.188-2.9998902s-4.1197482 1.1439335-5.188 2.9998902h-15.812c-1.65685425 0-3 1.3431458-3 3zm32-1c.5522847 0 1 .4477153 1 1s-.4477153 1-1 1h-2.09c.1200121-.6612656.1200121-1.3387344 0-2zm-8-3c2.209139 0 4 1.790861 4 4s-1.790861 4-4 4-4-1.790861-4-4 1.790861-4 4-4zm-5.91 5h-15.09c-.55228475 0-1-.4477153-1-1s.44771525-1 1-1h15.09c-.1200121.6612656-.1200121 1.3387344 0 2z"/><path id="Shape" d="m3 57h15.812c1.0682518 1.8559567 3.0465666 2.9998902 5.188 2.9998902s4.1197482-1.1439335 5.188-2.9998902h2.812c1.6568542 0 3-1.3431458 3-3s-1.3431458-3-3-3h-2.812c-1.0682518-1.8559567-3.0465666-2.9998902-5.188-2.9998902s-4.1197482 1.1439335-5.188 2.9998902h-15.812c-1.65685425 0-3 1.3431458-3 3s1.34314575 3 3 3zm29-4c.5522847 0 1 .4477153 1 1s-.4477153 1-1 1h-2.09c.1200121-.6612656.1200121-1.3387344 0-2zm-8-3c2.209139 0 4 1.790861 4 4s-1.790861 4-4 4-4-1.790861-4-4 1.790861-4 4-4zm-21 3h15.09c-.1200121.6612656-.1200121 1.3387344 0 2h-15.09c-.55228475 0-1-.4477153-1-1s.44771525-1 1-1z"/><path id="Shape" d="m3 46h5.812c1.06825182 1.8559567 3.0465666 2.9998902 5.188 2.9998902s4.1197482-1.1439335 5.188-2.9998902h12.812c1.6568542 0 3-1.3431458 3-3s-1.3431458-3-3-3h-12.812c-1.0682518-1.8559567-3.0465666-2.9998902-5.188-2.9998902s-4.11974818 1.1439335-5.188 2.9998902h-5.812c-1.65685425 0-3 1.3431458-3 3s1.34314575 3 3 3zm29-4c.5522847 0 1 .4477153 1 1s-.4477153 1-1 1h-12.09c.1200121-.6612656.1200121-1.3387344 0-2zm-18-3c2.209139 0 4 1.790861 4 4s-1.790861 4-4 4-4-1.790861-4-4 1.790861-4 4-4zm-11 3h5.09c-.1200121.6612656-.1200121 1.3387344 0 2h-5.09c-.55228475 0-1-.4477153-1-1s.44771525-1 1-1z"/></g></g></svg>