<svg height="512" viewBox="0 0 60 60" width="512" xmlns="http://www.w3.org/2000/svg"><g id="039---Paying-off-Credit"><path id="Shape" d="m21 55c0 .5522847.4477153 1 1 1h16c.5522847 0 1-.4477153 1-1s-.4477153-1-1-1h-16c-.5522847 0-1 .4477153-1 1z"/><path id="Shape" d="m.005 33c.00872056 1.6540427 1.34597414 2.993525 3 3.005h9v18.995c.0033061 2.7600532 2.2399468 4.9966939 5 5h25.995c2.7600532-.0033061 4.9966939-2.2399468 5-5v-4.995h9.009c1.650961-.0152952 2.9834145-1.3539856 2.991-3.005v-18.009c-.0135907-1.651192-1.348808-2.9864093-3-3h-9v-8.991h1c1.6568542 0 3-1.3431458 3-3v-4c0-1.65685425-1.3431458-3-3-3h-1v-2c-.0033061-2.76005315-2.2399468-4.99669388-5-5h-26c-2.7600532.00330612-4.9966939 2.23994685-5 5v6.99h-8.99c-1.6546079.0147335-2.99077275 1.3553522-3 3.01zm26-3h-24v-3h23.995zm-24 3v-1h23.995v2.005h-22.991c-.5530676-.0043591-1.00019149-.4519283-1.004-1.005zm55.995-4v18c-.0027056.551976-.4480444.9995415-1 1.005h-23v-2.005h18.07c.2662593.0000048.5215268-.1061753.7092366-.2950113.1877098-.1888361.292361-.4447342.2907634-.7109887-.0058738-.5280531.1996512-1.03653.5708035-1.4121902.3711522-.3756602.877111-.5873085 1.4051965-.5878098.5499402-.0032997.9940099-.4500499.994-1v-8c.0000435-.2683649-.1077807-.5254851-.2992283-.7135476s-.4504503-.291283-.7187717-.2864524c-1.1063021-.0005265-2.0048556-.8937209-2.012-2-.0032997-.5499402-.4500499-.9940099-1-.994h-18.01v-2.01h22.99c.5559948.0043524 1.0056476.4540052 1.01 1.01zm-13.976 14.808v-1.056c1.3589143-.5020444 2.164943-1.903457 1.9155631-3.3305191-.24938-1.4270621-1.4829202-2.4720588-2.9315631-2.4834809-.405938.0069019-.7757593-.2323155-.9359109-.6053903-.1601515-.3730747-.078843-.8059508.2057684-1.0954843s.7160299-.3782515 1.0917955-.2245196c.3757657.1537319.6212883.5193975.621347.9253942.0027517.5503311.449662.9950069 1 .995 1.659-.007 1.2-3.033-1.018-3.81v-1.067c2.48.591 4.013 3.209 4.024 5.861s-1.497 5.273-3.973 5.891zm-2.048-11.738v1.055c-1.3801577.4874873-2.2050114 1.9019354-1.949634 3.3432062s1.5160049 2.4861944 2.979634 2.4697938c.5522847 0 1 .4477153 1 1s-.4477153 1-1 1-1-.4477153-1-1-.4477153-1-1-1c-1.659.008-1.2 3.033 1.018 3.811v1.063c-2.48-.591-4.013-3.208-4.024-5.861s1.5-5.263 3.976-5.881zm5.7-.07h3.462c.3747494 1.4115359 1.4845183 2.5094417 2.9 2.869v6.251c-1.403636.3689186-2.4952929 1.4724538-2.849 2.88h-3.619c3.1996832-3.3435341 3.2474194-8.5988948.109-12zm-9.239 12h-4.437v-12h4.315c-3.13531 3.4043292-3.0818762 8.6601192.122 12zm10.563-35c.5522847 0 1 .44771525 1 1v4c0 .5522847-.4477153 1-1 1h-1v-6zm-8.767-7-1.7 2.828c-.5354708.76633199-1.4238119 1.20786538-2.358 1.172h-12.35c-.9358542.03739986-1.8262307-.40477276-2.362-1.173l-1.696-2.827zm-26.233 3c0-1.65685425 1.3431458-3 3-3h.434l2.314 3.856c.8928511 1.37594697 2.4373467 2.18816148 4.077 2.144h12.35c1.6396533.04416148 3.1841489-.76805303 4.077-2.144l2.314-3.856h.434c1.6568542 0 3 1.34314575 3 3v20.99h-12v-.99c0-.5522847-.4477153-1-1-1s-1 .4477153-1 1v26c0 .5522847.4477153 1 1 1s1-.4477153 1-1v-.995h12v4.995c0 1.6568542-1.3431458 3-3 3h-26c-1.6568542 0-3-1.3431458-3-3v-18.995h12v.995c0 .5522847.4477153 1 1 1s1-.4477153 1-1v-26c0-.5522847-.4477153-1-1-1s-1 .4477153-1 1v.99h-12zm-10.99 8.99h22.99v3.068c-.6558293-.6764752-1.5578054-1.0582995-2.5-1.0582995s-1.8441707.3818243-2.5 1.0582995c-.9935649-1.0201399-2.5061463-1.3366049-3.8253439-.8003454-1.3191975.5362595-2.1819726 1.8183171-2.1819726 3.2423454s.8627751 2.7060859 2.1819726 3.2423454c1.3191976.5362595 2.831779.2197945 3.8253439-.8003454.6558293.6764752 1.5578054 1.0582995 2.5 1.0582995s1.8441707-.3818243 2.5-1.0582995v3.058h-23.995v-9.991c.00048597-.5571348.44792521-1.010807 1.005-1.019zm21.99 5.51c0 .6066934-.3654633 1.1536478-.9259749 1.3858193-.5605115.2321715-1.2056883.1038379-1.6346853-.3251591s-.5573306-1.0741738-.3251591-1.6346853c.2321715-.5605116.7791259-.9259749 1.3858193-.9259749.8284271 0 1.5.6715729 1.5 1.5zm-5 0c0 .8284271-.6715729 1.5-1.5 1.5s-1.5-.6715729-1.5-1.5.6715729-1.5 1.5-1.5 1.5.6715729 1.5 1.5z"/></g></svg>