<svg height="512pt" viewBox="0 0 511 512" width="512pt" xmlns="http://www.w3.org/2000/svg"><path d="m485.859375 392.59375c-3.046875-5.304688-8.695313-8.582031-14.816406-8.59375-.214844 0-.394531.105469-.605469.121094-.210938-.015625-.390625-.121094-.605469-.121094h-17.066406v-180.355469c5.605469-10.089843 8.542969-21.4375 8.535156-32.976562-.007812-2.496094-.148437-4.992188-.425781-7.472657l37.867188-37.867187c16.644531-16.679687 16.644531-43.683594 0-60.367187-1.058594-.953126-2.160157-1.855469-3.308594-2.695313v-45.199219c-.007813-9.421875-7.644532-17.0585935-17.066406-17.066406h-128c-9.421876.0078125-17.058594 7.644531-17.066407 17.066406h-60.050781c-13.53125-18.09375-38.851562-22.433594-57.636719-9.882812-18.789062 12.550781-24.46875 37.605468-12.933593 57.03125l-12.988282 31.476562c-1.949218 4.207032-1.996094 9.046875-.128906 13.292969l4.609375 11.179687c.585937 1.339844 1.347656 2.597657 2.257813 3.746094l-7.453126 17.992188c-1.804687 4.355468.261719 9.347656 4.617188 11.152344 4.351562 1.804687 9.34375-.265626 11.148438-4.617188l7.441406-17.960938c1.449218-.171874 2.871094-.53125 4.226562-1.070312l11.09375-4.574219c4.214844-1.71875 7.570313-5.050781 9.316406-9.257812l13.1875-31.761719c1.914063-.441406 3.796876-1.015625 5.632813-1.714844 7.011719-2.941406 13.097656-7.71875 17.621094-13.832031h60.039062c.007813 9.421875 7.644531 17.058594 17.066407 17.066406h67.632812l-17.492188 17.496094c-19.300781-2.183594-38.613281 3.980469-53.078124 16.941406-14.46875 12.957031-22.710938 31.476563-22.664063 50.898438-.007813 11.539062 2.929687 22.886719 8.535156 32.976562v180.355469h-9.730469c-6.117187.011719-11.765624 3.28125-14.832031 8.574219l-8.234375 14.445312-9.871094-24.667969v-169.019531c-.007812-9.421875-7.644531-17.054687-17.066406-17.066406h-221.867187c-9.421875.011719-17.054688 7.644531-17.066407 17.066406v169.019531l-33.523437 83.8125c-.34375.910157-.527344 1.875-.542969 2.847657-.003906.113281-.066406.207031-.066406.320312v25.601563c.007812 9.421875 7.644531 17.058594 17.066406 17.066406h290.132813c9.421875-.007812 17.058593-7.644531 17.066406-17.066406v-25.601563c0-.113281-.058594-.207031-.0625-.320312-.015625-.972657-.199219-1.9375-.542969-2.847657l-2.144531-5.363281h173.441406c6.074219-.015625 11.683594-3.257812 14.730469-8.515625 3.042969-5.257812 3.0625-11.738281.050781-17.015625zm-264.785156-283.574219-11.121094 4.632813-.011719-.007813-4.609375-11.144531 10.105469-24.460938c4.765625 3.222657 10.136719 5.441407 15.785156 6.527344zm8.4375-42.691406c-9.566407-3.960937-15.804688-13.292969-15.804688-23.648437-.003906-10.355469 6.234375-19.691407 15.800781-23.652344 9.5625-3.964844 20.574219-1.777344 27.898438 5.542968 7.320312 7.324219 9.511719 18.332032 5.550781 27.898438-2.558593 6.304688-7.539062 11.320312-13.824219 13.921875-6.285156 2.605469-13.351562 2.582031-19.621093-.0625zm51.589843-15.128906c1.164063-5.628907 1.164063-11.4375 0-17.066407h52.199219v17.066407zm69.265626 17.066406v-51.199219h128v36.683594c-14.375-3.460938-29.515626.785156-39.996094 11.210938l-3.304688 3.304687zm94.265624 14.570313.003907-.003907 5.800781-5.804687c10.019531-9.9375 26.183594-9.902344 36.160156.074218 9.976563 9.976563 10.011719 26.140626.074219 36.160157l-30.78125 30.78125c-6.949219-16.300781-19.933594-29.28125-36.234375-36.234375zm-51.597656 36.628906c28.273438 0 51.199219 22.925781 51.199219 51.203125 0 28.277343-22.925781 51.199219-51.199219 51.199219-28.277344 0-51.203125-22.921876-51.203125-51.199219.03125-28.265625 22.9375-51.171875 51.203125-51.203125zm-42.667968 162.136718h34.132812v59.730469h-34.132812zm0 76.796876h34.132812c9.421875-.007813 17.058594-7.644532 17.066406-17.066407v-59.730469c-.007812-9.421874-7.644531-17.058593-17.066406-17.066406h-34.132812v-40.664062c24.898437 20.082031 60.433593 20.082031 85.332031 0v160.128906h-85.332031zm-298.667969-145.066407h221.867187v162.132813h-221.867187zm-2.753907 179.203125h227.375l27.308594 68.265625h-91.84375l-6.003906-21.628906c-2.066406-7.382813-8.785156-12.488281-16.449219-12.503906h-53.398437c-7.660156.011719-14.378906 5.121093-16.441406 12.5l-6.011719 21.632812h-91.84375zm140.386719 51.199219 4.742188 17.066406h-62.882813l4.742188-17.066406zm-171.765625 51.199219v-17.066406h290.132813v17.066406zm291.035156-67.664063 14.96875-26.203125h146.261719c.214844 0 .394531-.105468.605469-.121094.210938.015626.390625.121094.605469.121094l24.378906 42.667969h-180.234375zm0 0"/><path d="m148.066406 224.367188-76.800781 76.800781c-2.21875 2.140625-3.105469 5.3125-2.324219 8.296875s3.109375 5.3125 6.09375 6.09375 6.15625-.105469 8.296875-2.324219l76.800781-76.800781c3.234376-3.347656 3.1875-8.671875-.105468-11.960938-3.289063-3.292968-8.613282-3.339844-11.960938-.105468zm0 0"/><path d="m77.300781 273.066406c2.261719.003906 4.433594-.898437 6.03125-2.5l25.601563-25.601562c3.234375-3.347656 3.1875-8.667969-.105469-11.960938-3.289063-3.292968-8.613281-3.335937-11.960937-.105468l-25.601563 25.601562c-2.4375 2.441406-3.167969 6.109375-1.847656 9.296875 1.320312 3.191406 4.429687 5.269531 7.882812 5.269531zm0 0"/><path d="m393.035156 196.265625c14.136719 0 25.597656-11.460937 25.597656-25.597656 0-14.140625-11.460937-25.601563-25.597656-25.601563-14.140625 0-25.601562 11.460938-25.601562 25.601563.015625 14.128906 11.46875 25.582031 25.601562 25.597656zm0-34.132813c4.710938 0 8.53125 3.820313 8.53125 8.535157 0 4.710937-3.820312 8.53125-8.53125 8.53125-4.714844 0-8.535156-3.820313-8.535156-8.53125.007812-4.710938 3.824219-8.527344 8.535156-8.535157zm0 0"/><path d="m478.367188 93.867188c0 4.710937-3.820313 8.53125-8.535157 8.53125-4.710937 0-8.53125-3.820313-8.53125-8.53125 0-4.714844 3.820313-8.535157 8.53125-8.535157 4.714844 0 8.535157 3.820313 8.535157 8.535157zm0 0"/></svg>