<svg height="512" viewBox="0 0 60 60" width="512" xmlns="http://www.w3.org/2000/svg"><g id="Page-1" fill="none" fill-rule="evenodd"><g id="058---Online-Media" fill="rgb(0,0,0)" fill-rule="nonzero"><path id="Shape" d="m55 8h-19.586l6.293-6.293c.3789722-.39237889.3735524-1.01608478-.0121814-1.40181857-.3857338-.3857338-1.0094397-.39115364-1.4018186-.01218143l-7.707 7.707h-5.172l-7.707-7.707c-.3923789-.37897221-1.0160848-.37355237-1.4018186.01218143-.3857338.38573379-.3911536 1.00943968-.0121814 1.40181857l6.293 6.293h-19.586c-2.76005315.00330612-4.99669388 2.2399468-5 5v36c.00330612 2.7600532 2.23994685 4.9966939 5 5h11.556c-.3599241.6053465-.5518554 1.2957468-.556 2 0 2.209139 1.790861 4 4 4h20c2.209139 0 4-1.790861 4-4-.0041446-.7042532-.1960759-1.3946535-.556-2h11.556c2.7600532-.0033061 4.9966939-2.2399468 5-5v-36c-.0033061-2.7600532-2.2399468-4.99669388-5-5zm-13 48c0 1.1045695-.8954305 2-2 2h-20c-1.1045695 0-2-.8954305-2-2s.8954305-2 2-2h20c1.1045695 0 2 .8954305 2 2zm16-7c0 1.6568542-1.3431458 3-3 3h-50c-1.65685425 0-3-1.3431458-3-3v-36c0-1.6568542 1.34314575-3 3-3h50c1.6568542 0 3 1.3431458 3 3z"/><path id="Shape" d="m54 12h-48c-1.1045695 0-2 .8954305-2 2v34c0 1.1045695.8954305 2 2 2h48c1.1045695 0 2-.8954305 2-2v-34c0-1.1045695-.8954305-2-2-2zm0 2v20h-48v-20zm-48 34v-12h48v12z"/><path id="Shape" d="m16 38h-5c-1.1045695 0-2 .8954305-2 2v4c0 1.1045695.8954305 2 2 2h5c1.1045695 0 2-.8954305 2-2v-4c0-1.1045695-.8954305-2-2-2zm-5 6v-4h5v4z"/><path id="Shape" d="m27 38h-5c-1.1045695 0-2 .8954305-2 2v4c0 1.1045695.8954305 2 2 2h5c1.1045695 0 2-.8954305 2-2v-4c0-1.1045695-.8954305-2-2-2zm-5 6v-4h5v4z"/><path id="Shape" d="m38 38h-5c-1.1045695 0-2 .8954305-2 2v4c0 1.1045695.8954305 2 2 2h5c1.1045695 0 2-.8954305 2-2v-4c0-1.1045695-.8954305-2-2-2zm-5 6v-4h5v4z"/><path id="Shape" d="m49 38h-5c-1.1045695 0-2 .8954305-2 2v4c0 1.1045695.8954305 2 2 2h5c1.1045695 0 2-.8954305 2-2v-4c0-1.1045695-.8954305-2-2-2zm-5 6v-4h5v4z"/><path id="Shape" d="m26.09 31.768c.6178312.3388839 1.3728435.3061243 1.959-.085l9-5.88c.5932965-.4084745.9476652-1.082686.9476652-1.803s-.3543687-1.3945255-.9476652-1.803l-9-5.88c-.5860105-.3915709-1.3412756-.4243415-1.959-.085-.682427.3814633-1.1008797 1.1062696-1.09 1.888v11.76c-.0108797.7817304.407573 1.5065367 1.09 1.888zm.91-13.648c.0010425-.0312037.0043849-.062288.01-.093l8.948 5.844c.0560339.0768727.0560339.1811273 0 .258l-8.916 5.88s-.042-.03-.042-.129z"/><path id="Shape" d="m9 18h1c.5522847 0 1-.4477153 1-1s-.4477153-1-1-1h-1c-.55228475 0-1 .4477153-1 1s.44771525 1 1 1z"/><path id="Shape" d="m14 18h4c.5522847 0 1-.4477153 1-1s-.4477153-1-1-1h-4c-.5522847 0-1 .4477153-1 1s.4477153 1 1 1z"/><path id="Shape" d="m50 32h1c.5522847 0 1-.4477153 1-1s-.4477153-1-1-1h-1c-.5522847 0-1 .4477153-1 1s.4477153 1 1 1z"/><path id="Shape" d="m45 32h1c.5522847 0 1-.4477153 1-1s-.4477153-1-1-1h-1c-.5522847 0-1 .4477153-1 1s.4477153 1 1 1z"/></g></g></svg>