<svg height="512" viewBox="0 0 60 49" width="512" xmlns="http://www.w3.org/2000/svg"><g id="Page-1" fill="none" fill-rule="evenodd"><g id="004---Seafood-Delivery" fill="rgb(0,0,0)" fill-rule="nonzero"><path id="Shape" d="m14 36h4c.5522847 0 1-.4477153 1-1s-.4477153-1-1-1h-4c-.5522847 0-1 .4477153-1 1s.4477153 1 1 1z"/><path id="Shape" d="m49 35h4c.5522847 0 1-.4477153 1-1s-.4477153-1-1-1h-4c-.5522847 0-1 .4477153-1 1s.4477153 1 1 1z"/><path id="Shape" d="m59 47h-2.725c2.3199008-2.0121319 3.2653349-5.1852817 2.425-8.139.3109025-.1147782.5887515-.3043611.809-.552.3745728-.4247191.5477001-.99039.475-1.552-.6267734-5.0033193-4.8805751-8.7572789-9.923-8.757-.8139163-.0013557-1.6250526.0950003-2.416.287l-2.769-12.468c.3639703.1142527.7425624.1752181 1.124.181h2c1.1045695 0 2-.8954305 2-2v-4c0-1.1045695-.8954305-2-2-2h-2c-1.8184116.00681482-3.4034067 1.23931486-3.858 3h-7.142c-.5522847 0-1 .4477153-1 1s.4477153 1 1 1h3.153l2.6 15.607c.1280975.7528153-.0387961 1.5260414-.466 2.159l-2.225 3.342c-.3694509.557132-.9935017.8920617-1.662.892h-3.4c-2.7600532-.0033061-4.9966939-2.2399468-5-5v-4.184c1.3765475-.4848523 2.2026937-1.8918441 1.9553873-3.330178s-1.49595-2.4885874-2.9553873-2.485822h-7.184c.1184378-.320257.1806856-.6585603.184-1v-16c0-1.65685425-1.3431458-3-3-3h-14c-1.65685425 0-3 1.34314575-3 3v16c0 1.6568542 1.34314575 3 3 3h9.186c-.4126951 1.1040851-.1221181 2.3480072.737 3.155l-1.323 4.88c-3.17772705 1.5639872-5.29190901 4.6913336-5.559 8.223-.63862719.3474653-1.0375239 1.0149754-1.041 1.742v2c0 1.1045695.8954305 2 2 2h1.61c.46066696 1.1519082 1.18546535 2.1795052 2.116 3h-9.726c-.55228475 0-1 .4477153-1 1s.44771525 1 1 1h29c.5522847 0 1-.4477153 1-1s-.4477153-1-1-1h-8.723c.9302275-.8207704 1.6549704-1.8482887 2.116-3h1.607c.7113825-.0019392 1.3677385-.3830983 1.722-1h16.543c.4022248 1.5497624 1.260221 2.9431789 2.463 4h-11.728c-.5522847 0-1 .4477153-1 1s.4477153 1 1 1h25c.5522847 0 1-.4477153 1-1s-.4477153-1-1-1zm-13-37h2v4h-2c-1.1045695 0-2-.8954305-2-2s.8954305-2 2-2zm-44 9v-16c0-.55228475.44771525-1 1-1h14c.5522847 0 1 .44771525 1 1v16c0 .5522847-.4477153 1-1 1h-14c-.55228475 0-1-.4477153-1-1zm15 3h10c.5522847 0 1 .4477153 1 1s-.4477153 1-1 1h-12c-.5522847 0-1-.4477153-1-1s.4477153-1 1-1zm-1 9c4.0278958.0066935 7.423997 3.004135 7.931 7h-15.86c.50648766-3.9953321 3.9016987-6.9927438 7.929-7zm0 16c-2.1410545.0062798-4.1199269-1.1397853-5.18-3h10.362c-1.0604257 1.8608386-3.0402311 3.0070015-5.182 3zm-9-5v-2h18v1.993.007zm20-1v-1c-.0024605-.726235-.3997635-1.3936426-1.037-1.742-.208252-2.8856768-1.6590156-5.5388104-3.9760683-7.271371-2.3170527-1.7325605-5.2721416-2.3738735-8.0989317-1.757629l.883-3.252c.077.006.151.023.229.023h11v4c.0044086 3.8641657 3.1358343 6.9955914 7 7h3.4c1.3389871.0015958 2.5895483-.6683745 3.33-1.784l2.222-3.339c.7121944-1.0554799.9904582-2.3447334.777-3.6l-2.547-15.277h1.961c.0475422.1985641.1103969.3931463.188.582l3.362 15.138c.1130919.5208238.4323822.9736027.885 1.255.4568425.2873489 1.0104254.3778697 1.535.251.6385329-.1497015 1.2921535-.2255322 1.948-.226 4.0305396-.000792 7.4305965 3.0005193 7.93 7h-15.991c-.5522847 0-1 .4477153-1 1s.4477153 1 1 1h1.262c-.1717149.652874-.2597537 1.3249256-.262 2zm18 0c-.0014307-.6816794.1156453-1.3584194.346-2h11.31c.2295359.6417377.3459304 1.31845.344 2 0 3.3137085-2.6862915 6-6 6s-6-2.6862915-6-6z"/><path id="Shape" d="m15.707 10.293c-.4962579-.50855154-1.1058914-.8923568-1.779-1.12-.0342594-.19822726-.0789887-.3945019-.134-.588-.0090552-.06240855-.0244687-.12372751-.046-.183-.5242046-1.52277415-1.4308537-2.88533034-2.633-3.957-.6268456-.58852085-1.60315438-.58852085-2.23 0-1.20560335 1.07449555-2.11353977 2.44191118-2.636 3.97-.01436652.04350217-.02572661.08794018-.034.133-.05953388.2054391-.10727839.41411265-.143.625-.67310857.2276432-1.28274211.61144846-1.779 1.12-.25995658.2510745-.3642126.6228779-.27269716.9725073.09151544.3496295.3645604.6226744.71418984.7141899.34962943.0915154.72143285-.0127406.97250732-.2726972.14406562-.1456952.30368813-.275137.476-.386.18525518.7272416.48463806 1.4205138.887 2.054-.34181245.6729425-.62098897 1.3759049-.834 2.1-.16870823.5958083-.04639383 1.236291.33 1.728.37770876.5036117.97048539.8 1.6.8h3.662c.6295146 0 1.2222912-.2963883 1.6-.8.3763938-.491709.4987082-1.1321917.33-1.728-.213011-.7240951-.4921875-1.4270575-.834-2.1.4023619-.6334862.7017448-1.3267584.887-2.054.1723119.110863.3319344.2403048.476.386.3923789.3789722 1.0160848.3735524 1.4018186-.0121814s.3911536-1.0094397.0121814-1.4018186zm-5.707-4.146c.6920066.67357971 1.2540468 1.46884293 1.658 2.346-1.0129087.63799962-2.30209129.63799962-3.315 0 .40363419-.87708904.96533405-1.67235028 1.657-2.346zm-1.838 9.868c.2369692-.7762588.55505799-1.5253931.949-2.235.18010599-.3365142.15294856-.7462034-.07-1.056-.47778198-.6246222-.81235054-1.3466758-.98-2.115 1.24002722.5217097 2.6379728.5217097 3.878 0-.1676495.7683242-.502218 1.4903778-.98 2.115-.2229486.3097966-.250106.7194858-.07 1.056.3919887.7044269.7077727 1.4486311.942 2.22z"/></g></g></svg>