<?xml version="1.0" encoding="UTF-8"?>
<svg width="100%" height="100%" viewBox="0 0 40 29" version="1.1" xmlns="http://www.w3.org/2000/svg" xmlns:xlink="http://www.w3.org/1999/xlink">

    <title>GW-technology-opencart</title>
    <desc>Created with Figma.</desc>
    <g transform="matrix(1,0,0,1,-2.99525,-8)">
        <g id="GW-technology-opencart" transform="matrix(1.85676,0,0,1.85676,-139.53,8)">
            <path d="M97.77,4.541C97.762,3.657 96.128,3.256 91.898,3.256C81.973,3.256 79.455,2.833 76.76,0C77.894,1.701 78.514,4.891 89.004,4.732C99.95,4.564 93.272,7.551 91.33,10.927C94.833,7.803 97.759,5.744 97.77,4.553L97.77,4.541ZM83.823,13.612C83.822,14.433 83.146,15.108 82.324,15.109C81.494,15.109 80.822,14.438 80.822,13.612L80.822,13.611C80.822,12.788 81.5,12.111 82.323,12.111L82.324,12.111C83.152,12.111 83.823,12.782 83.823,13.612ZM90.658,13.612C90.657,14.433 89.981,15.108 89.159,15.109C88.329,15.109 87.658,14.438 87.658,13.612L87.658,13.611C87.658,12.788 88.335,12.111 89.158,12.111L89.159,12.111C89.987,12.111 90.658,12.782 90.658,13.612Z" style="fill:rgb(78,78,78);fill-rule:nonzero;"/>
        </g>
    </g>
</svg>
