<svg height="512" viewBox="0 0 60 60" width="512" xmlns="http://www.w3.org/2000/svg"><g id="Page-1" fill="none" fill-rule="evenodd"><g id="026---Shopping-New-Mobile" fill="rgb(0,0,0)" fill-rule="nonzero"><path id="Shape" d="m24 56c1.6568542 0 3-1.3431458 3-3s-1.3431458-3-3-3-3 1.3431458-3 3 1.3431458 3 3 3zm0-4c.5522847 0 1 .4477153 1 1s-.4477153 1-1 1-1-.4477153-1-1 .4477153-1 1-1z"/><path id="Shape" d="m49 56c1.6568542 0 3-1.3431458 3-3s-1.3431458-3-3-3-3 1.3431458-3 3 1.3431458 3 3 3zm0-4c.5522847 0 1 .4477153 1 1s-.4477153 1-1 1-1-.4477153-1-1 .4477153-1 1-1z"/><path id="Shape" d="m57 21h-7v-16c-.0033061-2.76005315-2.2399468-4.99669388-5-5h-18c-2.7600532.00330612-4.9966939 2.23994685-5 5v16h-7.823l-5.769-16.966c-.41372369-1.21642445-1.55614374-2.03433447-2.841-2.034h-4.567c-.55228475 0-1 .44771525-1 1s.44771525 1 1 1h4.567c.42865305-.00054013.80997395.27217671.948.678l14.312 42.09c-2.9624826 1.5005325-4.4629506 4.8760564-3.5919518 8.0806253.8709987 3.2045689 3.8737229 5.3561296 7.1881846 5.1505946s6.0283597-2.7115923 6.4967672-5.9992199h11.16c.5244977 3.6338264 3.7674331 6.2449516 7.4294903 5.9820277 3.6620572-.2629238 6.4987129-3.3105441 6.4987129-6.9820277s-2.8366557-6.7191039-6.4987129-6.9820277c-3.6620572-.2629239-6.9049926 2.3482013-7.4294903 5.9820277h-11.16c-.2641951-1.8880987-1.290803-3.5853671-2.8404034-4.695977-1.5496003-1.11061-3.486721-1.5374675-5.3595966-1.181023l-.72-2.123h29.332c1.2911888.000024 2.4375539-.8261162 2.846-2.051l4.851-14.555v-.016l.81-2.429c.3046843-.9137053.1521371-1.9181386-.4100874-2.7001831-.5622244-.7820445-1.4657485-1.2465883-2.4289126-1.2488169zm-8 27c2.7614237 0 5 2.2385763 5 5s-2.2385763 5-5 5-5-2.2385763-5-5c.0033061-2.7600532 2.2399468-4.9966939 5-5zm-20 5c0 2.7614237-2.2385763 5-5 5s-5-2.2385763-5-5 2.2385763-5 5-5c2.7600532.0033061 4.9966939 2.2399468 5 5zm28.81-29.584c.1895548.2597687.2406751.5955952.137.9l-.561 1.684h-4.486l.857-3h3.243c.3215346-.0010988.6235757.1540235.81.416zm-2.091 7.584h-4.25l.857-3h4.393zm-1.666 5h-4.013l.858-3h4.155zm-10.953 6 .381-4h3.908l-1.143 4zm-15.345 0-1.143-4h3.908l.381 4zm1.336-19 .286 3h-6.194l-.857-3zm13.809 0-.286 3h-4.614v-3zm8.773 0-.857 3h-6.193l.286-3zm-15.673 10v3h-3.663l-.285-3zm-4.139-2-.285-3h4.424v3zm6.139 2h3.948l-.285 3h-3.663zm0-2v-3h4.424l-.285 3zm6.433-3h5.812l-.857 3h-5.241zm-8.433-5v3h-4.615l-.285-3zm-6.433 5 .286 3h-5.241l-.857-3zm-7.036 3h-4.954l-1.02-3h5.117zm-4.274 2h4.843l.858 3h-4.681zm6.926 0h4.86l.286 3h-4.289zm7.345 5h3.472v4h-3.091zm5.472 0h3.472l-.381 4h-3.091zm5.671-2 .286-3h4.86l-.857 3zm-16.671-34h18c1.6568542 0 3 1.34314575 3 3v3h-24v-3c0-1.65685425 1.3431458-3 3-3zm-3 8h24v11.0000063l-12-.0000063c-.9038505.0022652-1.6961809-.6037115-1.9307046-1.4766086-.2345237-.8728972.1474227-1.7943701.9307046-2.2453914v.722c0 .5522847.4477153 1 1 1s1-.4477153 1-1v-.71c.4224762.2358174.7429797.6193532.9 1.077.1127173.3394023.3979413.592889.748231.6649741s.7124276-.0481828.95-.3155.3144863-.6410718.201769-.9804741c-.4298923-1.2867958-1.4849294-2.2664731-2.8-2.6v-1.136c0-.5522847-.4477153-1-1-1s-1 .4477153-1 1v1.142c-1.2139892.301556-2.2136142 1.159909-2.6952543 2.3143476-.4816402 1.1544386-.3884541 2.4687204.2512543 3.5436524l-8.556.0000063zm-3.755 13 .857 3h-5.225l-1.02-3zm-.288 15h4.574l1.143 4h-4.357zm31.375 4h-3.006l1.143-4h3.917l-1.105 3.316c-.1360719.4085428-.5183926.6841037-.949.684z"/><path id="Shape" d="m33 6h6c.5522847 0 1-.44771525 1-1s-.4477153-1-1-1h-6c-.5522847 0-1 .44771525-1 1s.4477153 1 1 1z"/></g></g></svg>