<svg height="512" viewBox="0 0 48 60" width="512" xmlns="http://www.w3.org/2000/svg"><g id="Page-1" fill="none" fill-rule="evenodd"><g id="033---Like-Image" fill="rgb(0,0,0)" fill-rule="nonzero"><path id="Shape" d="m44 0h-28c-2.209139 0-4 1.790861-4 4v4h-9c-1.65685425 0-3 1.34314575-3 3v16c0 1.6568542 1.34314575 3 3 3h9v26c0 2.209139 1.790861 4 4 4h28c2.209139 0 4-1.790861 4-4v-52c0-2.209139-1.790861-4-4-4zm-6.308 2-1.282 1.368c-.378896.40269492-.907076.63133176-1.46.632h-9.9c-.5527743.00000995-1.0809024-.22876112-1.459-.632l-1.282-1.368zm-23.692 2c0-1.1045695.8954305-2 2-2h3.567l2.565 2.735c.7567936.80574999 1.8125738 1.2634477 2.918 1.265h9.9c1.1054015-.00208587 2.1611681-.45925919 2.919-1.264l2.564-2.736h3.567c1.1045695 0 2 .8954305 2 2v47c0 1.1045695-.8954305 2-2 2h-28c-1.1045695 0-2-.8954305-2-2v-20.882l2 1v3.882c0 1.6568542 1.3431458 3 3 3h22c1.6568542 0 3-1.3431458 3-3v-21c0-1.6568542-1.3431458-3-3-3h-15c0-1.65685425-1.3431458-3-3-3h-9zm28 25.826-5.349-4.585c-.3558383-.3052133-.8759408-.322259-1.251-.041l-3.306 2.48-6.094-6.094v-8.586h15c.5522847 0 1 .4477153 1 1zm-16-2.826v-2.586l5.293 5.293c.3518492.3518644.9088739.3914997 1.307.093l3.358-2.519 6.042 5.179v2.54c0 .5522847-.4477153 1-1 1h-22c-.5522847 0-1-.4477153-1-1v-2.882l3.553 1.782c.3108588.1553431.6800764.1381628.9751664-.0453763.2950901-.183539.4737357-.5071168.4718336-.8546237v-3c1.6568542 0 3-1.3431458 3-3zm-24 0v-16c0-.5522847.44771525-1 1-1h20c.5522847 0 1 .4477153 1 1v16c0 .5522847-.4477153 1-1 1h-1c-.5522847 0-1 .4477153-1 1v2.382l-6.553-3.277c-.1388389-.0691972-.2918727-.1051447-.447-.105h-11c-.55228475 0-1-.4477153-1-1zm42 31h-28c-1.1045695 0-2-.8954305-2-2v-1.556c.6053465.3599241 1.2957468.5518554 2 .556h28c.7042532-.0041446 1.3946535-.1960759 2-.556v1.556c0 1.1045695-.8954305 2-2 2z"/><path id="Shape" d="m36 15c-2.209139 0-4 1.790861-4 4s1.790861 4 4 4 4-1.790861 4-4-1.790861-4-4-4zm0 6c-1.1045695 0-2-.8954305-2-2s.8954305-2 2-2 2 .8954305 2 2-.8954305 2-2 2z"/><path id="Shape" d="m42 40h-24c-1.1045695 0-2 .8954305-2 2v4c0 1.1045695.8954305 2 2 2h24c1.1045695 0 2-.8954305 2-2v-4c0-1.1045695-.8954305-2-2-2zm-24 6v-4h24v4z"/><path id="Shape" d="m21 16.758c.0466802-1.231091-.4040334-2.4291723-1.2505664-3.3242398-.846533-.8950676-2.0176536-1.4118056-3.2494336-1.4337602-1.324157-.001809-2.5904172.5426829-3.5 1.505-.9095828-.9623171-2.175843-1.506809-3.5-1.505-1.23178001.0219546-2.40290059.5386926-3.24943358 1.4337602-.84653298.8950675-1.29724663 2.0931488-1.25056642 3.3242398 0 2.852 2.205 4.692 5.542 7.478.568.474 1.172.979 1.807 1.523.374224.3200877.925776.3200877 1.3 0 .635-.544 1.239-1.049 1.807-1.523 3.344-2.786 5.544-4.626 5.544-7.478zm-8 6.929c-.407-.344-.8-.671-1.177-.986-3.008-2.511-4.823-4.027-4.823-5.943-.0484682-.7007773.19078757-1.3910368.6625556-1.9114913.47176802-.5204545 1.13528847-.8261377 1.8374444-.8465087 1.0932861.0381433 2.0850404.6511449 2.608 1.612.1701743.3330616.5119859.5433182.886.545h.006c.3750674-.0015512.7181269-.2116269.89-.545.5231667-.9615996 1.5159297-1.5747543 2.61-1.612.7021559.020371 1.3656764.3260542 1.8374444.8465087s.7110238 1.210714.6625556 1.9114913c0 1.916-1.815 3.432-4.823 5.943-.377.315-.77.642-1.177.986z"/></g></g></svg>