<?xml version="1.0" encoding="iso-8859-1"?>
<!-- Generator: Adobe Illustrator 19.0.0, SVG Export Plug-In . SVG Version: 6.00 Build 0)  -->
<svg version="1.1" id="Capa_1" xmlns="http://www.w3.org/2000/svg" xmlns:xlink="http://www.w3.org/1999/xlink" x="0px" y="0px"
	 viewBox="0 0 512.104 512.104" style="enable-background:new 0 0 512.104 512.104;" xml:space="preserve">
<g transform="translate(0 -1)">
	<g>
		<g>
			<path d="M443.785,496.037h-20.151l-95.397-205.856c62.232-33.133,93.917-104.378,76.842-172.781
				C388.004,48.996,326.555,1,256.052,1S124.1,48.996,107.025,117.4c-17.075,68.404,14.61,139.648,76.842,172.781L88.469,496.037
				H8.585c-4.713,0-8.533,3.82-8.533,8.533s3.82,8.533,8.533,8.533h435.2c4.713,0,8.533-3.821,8.533-8.533
				S448.498,496.037,443.785,496.037z M374.998,431.672c-8.664-7.692-17.91-14.702-27.655-20.968h17.939L374.998,431.672z
				 M330.462,335.569l24.268,52.367l-76.141-31.149L330.462,335.569z M245.773,197.18c0.022-0.045,0.066-0.071,0.087-0.117
				c0.022-0.048,0.015-0.099,0.036-0.147L256.052,175l10.156,21.915c0.021,0.048,0.014,0.099,0.036,0.147
				c0.029,0.062,0.079,0.105,0.109,0.166l15.884,34.276h-52.37L245.773,197.18z M221.919,154.704
				c-0.05-15.887,10.868-29.708,26.335-33.337s31.393,3.892,38.416,18.143c7.023,14.251,3.285,31.462-9.016,41.517l-6.118-13.201
				c-2.794-6.032-8.836-9.892-15.483-9.892c-6.647,0-12.689,3.86-15.483,9.892l-6.118,13.201
				C226.566,174.553,221.973,164.905,221.919,154.704z M272.089,248.571l-16.037,11.454l-16.037-11.454H272.089z M292.959,254.639
				l21.992,47.456l-44.215-31.583L292.959,254.639z M284.984,196.846c18.517-12.682,26.615-35.946,19.977-57.385
				c-6.638-21.439-26.466-36.056-48.909-36.056c-22.444,0-42.271,14.617-48.909,36.056c-6.638,21.439,1.46,44.703,19.977,57.385
				l-14.428,31.134c-33.136-19.549-49.093-58.855-38.96-95.97c10.132-37.115,43.848-62.86,82.321-62.86
				c38.473,0,72.188,25.745,82.321,62.86c10.132,37.115-5.824,76.42-38.96,95.97L284.984,196.846z M219.146,254.639l22.223,15.873
				l-44.215,31.583L219.146,254.639z M256.052,281l50.171,35.838H205.881L256.052,281z M289.456,333.904l-33.404,13.667
				l-33.404-13.667H289.456z M323.59,393.637H188.515l67.537-27.629L323.59,393.637z M119.519,154.704
				c-0.034-66.737,48.182-123.719,114.005-134.731c65.823-11.012,129.96,27.174,151.65,90.288s-5.425,132.66-64.111,164.436
				l-14.377-31.023c40.39-22.977,60.245-70.27,48.362-115.193c-11.884-44.923-52.527-76.213-98.995-76.213
				s-87.111,31.289-98.995,76.213s7.971,92.216,48.362,115.193l-14.377,31.023C147.042,250.799,119.609,204.776,119.519,154.704z
				 M181.641,335.569l51.873,21.218l-76.141,31.149L181.641,335.569z M146.822,410.704h17.939
				c-9.745,6.266-18.991,13.276-27.655,20.968L146.822,410.704z M107.278,496.037l8.823-19.04c0.54-0.326,1.04-0.714,1.489-1.156
				c0.533-0.65,53.854-65.138,95.796-65.138h85.333c41.941,0,95.262,64.487,95.796,65.138c0.449,0.442,0.949,0.83,1.489,1.156
				l8.823,19.04H107.278z"/>
			<path d="M503.519,496.037h-25.6c-4.713,0-8.533,3.82-8.533,8.533s3.82,8.533,8.533,8.533h25.6c4.713,0,8.533-3.821,8.533-8.533
				S508.232,496.037,503.519,496.037z"/>
		</g>
	</g>
</g>
<g>
</g>
<g>
</g>
<g>
</g>
<g>
</g>
<g>
</g>
<g>
</g>
<g>
</g>
<g>
</g>
<g>
</g>
<g>
</g>
<g>
</g>
<g>
</g>
<g>
</g>
<g>
</g>
<g>
</g>
</svg>
