<svg height="512" viewBox="0 0 60 60" width="512" xmlns="http://www.w3.org/2000/svg"><g id="Page-1" fill="none" fill-rule="evenodd"><g id="019---Airport-Taxi" fill="rgb(0,0,0)" fill-rule="nonzero"><path id="Shape" d="m58 49.184v-10.184c0-2.209139-1.790861-4-4-4h-2.356l-4.2-9.242c-.4885095-1.0698467-1.5558997-1.756696-2.732-1.758h-3.712v-3c0-1.1045695-.8954305-2-2-2h-11c-1.1045695 0-2 .8954305-2 2v3h-3.812c-1.0978506-.0002032-2.1081296.5992904-2.634 1.563l-5.148 9.437h-8.406c-2.209139 0-4 1.790861-4 4v10.181c-.41762015.1422975-.79654768.3795123-1.107.693-.5752473.5571583-.89784564 1.3251808-.893 2.126 0 1.6568542 1.34314575 3 3 3h3.438c1.05547151 2.9958236 3.8861847 4.9997802 7.0625 4.9997802s6.0070285-2.0039566 7.0625-4.9997802h19.875c1.0554715 2.9958236 3.8861847 4.9997802 7.0625 4.9997802s6.0070285-2.0039566 7.0625-4.9997802h2.437c1.6529917-.0092882 2.9907118-1.3470083 3-3-.0052514-1.2667854-.8056491-2.3937454-2-2.816zm-30-28.184h11v3h-11zm-6.69 5.521c.1752901-.3212365.5120498-.5210677.878-.521h22.524c.3923269-.0002837.7485767.2288737.911.586l3.824 8.414h-8.931l2.4-5.606c.1468235-.329423.1048848-.7123845-.1097549-1.0022231-.2146397-.2898387-.5687214-.441643-.9266436-.3972771-.3579222.044366-.6642238.2780276-.8016015.6115002l-2.737 6.394h-13.825l2.4-5.606c.2082516-.505513-.0280796-1.0845653-.5305742-1.2999982-.5024946-.215433-1.0848553.012624-1.3074258.5119982l-2.737 6.394h-5.656zm-6.31 10.479h39c1.1045695 0 2 .8954305 2 2v10h-1.872c-1.2956778-2.4602099-3.847458-4.0003415-6.628-4.0003415s-5.3323222 1.5401316-6.628 4.0003415h-20.744c-1.2956778-2.4602099-3.847458-4.0003415-6.628-4.0003415s-5.33232215 1.5401316-6.628 4.0003415h-2.872v-7h3.241c2.07489639-.0027544 3.7562456-1.6841036 3.759-3.759v-1.241zm-9 0h3v1.241c-.00110217.971012-.78798803 1.7578978-1.759 1.759h-3.241v-1c0-1.1045695.8954305-2 2-2zm-3 16c-.55228475 0-1-.4477153-1-1-.00039544-.2693445.11030803-.526929.306-.712.18239634-.1865985.43307757-.2906276.694-.288h3.151c-.10065983.4936481-.15124943.9961937-.151 1.5 0 .169.014.334.025.5zm10.5 5c-3.0375661 0-5.5-2.4624339-5.5-5.5s2.4624339-5.5 5.5-5.5 5.5 2.4624339 5.5 5.5c-.0033068 3.0361953-2.4638047 5.4966932-5.5 5.5zm7.475-5c.011-.166.025-.331.025-.5.0002494-.5038063-.0503402-1.0063519-.151-1.5h19.3c-.0999882.4937163-.1499077.9962613-.149 1.5 0 .169.014.334.025.5zm26.525 5c-3.0375661 0-5.5-2.4624339-5.5-5.5s2.4624339-5.5 5.5-5.5 5.5 2.4624339 5.5 5.5c-.0033068 3.0361953-2.4638047 5.4966932-5.5 5.5zm10.194-5.288c-.1823963.1865985-.4330776.2906276-.694.288h-2.025c.011-.166.025-.331.025-.5.0002494-.5038063-.0503402-1.0063519-.151-1.5h2.151c.5522847 0 1 .4477153 1 1 .0003954.2693445-.110308.526929-.306.712z"/><path id="Shape" d="m13.5 49c-1.9329966 0-3.5 1.5670034-3.5 3.5s1.5670034 3.5 3.5 3.5 3.5-1.5670034 3.5-3.5-1.5670034-3.5-3.5-3.5zm0 5c-.8284271 0-1.5-.6715729-1.5-1.5s.6715729-1.5 1.5-1.5 1.5.6715729 1.5 1.5-.6715729 1.5-1.5 1.5z"/><path id="Shape" d="m47.5 49c-1.9329966 0-3.5 1.5670034-3.5 3.5s1.5670034 3.5 3.5 3.5 3.5-1.5670034 3.5-3.5-1.5670034-3.5-3.5-3.5zm0 5c-.8284271 0-1.5-.6715729-1.5-1.5s.6715729-1.5 1.5-1.5 1.5.6715729 1.5 1.5-.6715729 1.5-1.5 1.5z"/><path id="Shape" d="m22 45h2c0 1.1045695.8954305 2 2 2h2c1.1045695 0 2-.8954305 2-2h2c0 1.1045695.8954305 2 2 2h2c1.1045695 0 2-.8954305 2-2h2c1.1045695 0 2-.8954305 2-2v-2c0-1.1045695-.8954305-2-2-2h-2c-1.1045695 0-2 .8954305-2 2h-2c0-1.1045695-.8954305-2-2-2h-2c-1.1045695 0-2 .8954305-2 2h-2c0-1.1045695-.8954305-2-2-2h-2c-1.1045695 0-2 .8954305-2 2v2c0 1.1045695.8954305 2 2 2zm16-4h2v2h-2zm-2 2v2h-2v-2zm-6-2h2v2h-2zm-2 2v2h-2v-2zm-6-2h2v2h-2z"/><path id="Shape" d="m55.45 5.884c-.7076673-.57198553-1.5900767-.88400549-2.5-.884h-11.984l-6.278-4.611c-.3447162-.25239155-.760764-.38862266-1.188-.389h-2.633c-.7376416-.00072559-1.4157996.40463264-1.7644549 1.05467507-.3486554.65004244-.3111991 1.43922592.0974549 2.05332493l1.262 1.892h-8.784l-1.5-3.736c-.2991895-.7643509-1.0371828-1.26640874-1.858-1.264h-1.32c-1.1045695 0-2 .8954305-2 2v6h-3c-.5522847 0-1 .44771525-1 1s.4477153 1 1 1h3c.0033061 2.7600532 2.2399468 4.9966939 5 5h8.879c-.0072813.5307204.1995759 1.0419908.5738508 1.4183356s.8843967.5860186 1.4151492.5816644h2.638c.4259762.0013723.8409679-.1350874 1.183-.389l2.194-1.611h19.417c1.5732893.0026026 2.9761708-.9900044 3.4972723-2.4744906s.0464485-3.13616704-1.1832723-4.1175094zm-1.25 1.558 1.949 1.558h-5.149c-.5522847 0-1-.44771525-1-1v-1.00000498l2.95.00000498c.4551358-.00102124.8966711.15510564 1.25.442zm-23.333-5.442h2.633l4.085 3h-4.721zm26.633 10.5c-.3173965.319906-.7493555.499889-1.2.5h-16.7l2.987-2.194c.4451415-.3269526.5409525-.95285848.214-1.39799997-.3269526-.44514149-.9528585-.54095256-1.398-.21400003l-7.897 5.806h-2.638l2.964-4.445c.1982824-.297245.2229246-.67769305.0646441-.99803314-.1582805-.32034008-.4754371-.53190488-.832-.555-.3565629-.02309511-.6983617.14578817-.8966441.44303314l-2.368 3.555h-9.8c-1.6568542 0-3-1.3431458-3-3h2c.5522847 0 1-.44771525 1-1s-.4477153-1-1-1h-2v-6h1.322l1.5 3.736c.2991895.7643509 1.0371828 1.26640874 1.858 1.264h26.32v1c0 1.65685425 1.3431458 3 3 3h6.966c.0203627.0987692.0317425.1991789.034.3-.000111.4506445-.180094.8826035-.5 1.2z"/><path id="Shape" d="m11 14h1c.5522847 0 1-.4477153 1-1s-.4477153-1-1-1h-1c-.5522847 0-1 .4477153-1 1s.4477153 1 1 1z"/><path id="Shape" d="m1 14h6c.55228475 0 1-.4477153 1-1s-.44771525-1-1-1h-6c-.55228475 0-1 .4477153-1 1s.44771525 1 1 1z"/><path id="Shape" d="m1 6h1c.55228475 0 1-.44771525 1-1s-.44771525-1-1-1h-1c-.55228475 0-1 .44771525-1 1s.44771525 1 1 1z"/><path id="Shape" d="m13 5c0-.55228475-.4477153-1-1-1h-6c-.55228475 0-1 .44771525-1 1s.44771525 1 1 1h6c.5522847 0 1-.44771525 1-1z"/><path id="Shape" d="m1 10h7c.55228475 0 1-.44771525 1-1s-.44771525-1-1-1h-7c-.55228475 0-1 .44771525-1 1s.44771525 1 1 1z"/></g></g></svg>