<svg height="60" viewBox="0 0 60 60" width="60" xmlns="http://www.w3.org/2000/svg"><g id="Page-1" fill="none" fill-rule="evenodd"><g id="046---Hotel-Marker" fill="rgb(0,0,0)" fill-rule="nonzero"><path id="Shape" d="m59.46 57.32-3.54-9.93c-.0123446-.0416668-.0291065-.0818952-.05-.12l-5.69-15.94c-.282953-.7958378-1.03536-1.3281257-1.88-1.33h-4c1.776903-4.0511832 2.6961803-8.4262624 2.7-12.85 0-9.38884075-7.6111593-17-17-17s-17 7.61115925-17 17c.0141489 4.4247214.9400759 8.7990458 2.72 12.85h-4c-.8483087-.0023587-1.6058188.5307039-1.89 1.33l-7.31 20.45c-.00565734.0431487-.00565734.0868513 0 .13l-1.98 5.4c-.09530705.2829388-.12605915.583626-.09.88v.09.15c.20540964.9342904 1.04365601 1.5923138 2 1.57h55.13c.6516197-.0002772 1.2622506-.3179822 1.6364641-.8514356.3742136-.5334534.4650867-1.2157646.2435359-1.8285644zm-34.31-8.61 21.53 9.29h-6.76l-19.86-8.58c-.2550505-.1113131-.5449495-.1113131-.8 0l-16.26 7.04 1.2-3.46 7-3c.3687533-.1570883.6080816-.5191812.6080816-.92s-.2393283-.7629117-.6080816-.92l-4.53-2 .91-2.53 8.74 3.78c.1274391.0504989.2629413.0775993.4.08.1371549-.0014947.2728206-.0286278.4-.08l8.56-3.7c.87.81 1.64 1.45 2.26 1.94l-2.76 1.19c-.3687533.1570883-.6080816.5191812-.6080816.92s.2393283.7629117.6080816.92zm-19.15-.63 2.28 1-3.14 1.33zm28.88 9.92h-30.42l15.2-6.57zm-24.17-23.19 11 4.75c.82 1 1.64 1.88 2.42 2.67l-7.41 3.2-8.5-3.66zm29.14 2.8 9.06-3.91.9 2.53-4 1.71c-.3687533.1570883-.6080816.5191812-.6080816.92s.2393283.7629117.6080816.92l6.19 2.67 1.24 3.45-12.49-5.4c-.2550505-.1113131-.5449495-.1113131-.8 0l-4.07 1.75c1.4330596-1.4493074 2.7598281-2.9999891 3.97-4.64zm11.26 2.26-2.35-1 1.72-.74zm-3.3-7.87-5.88 2.54c.51-.84 1-1.69 1.4-2.54zm-31.48-21.07c2.9127586-6.44831223 9.9355629-9.98426905 16.8503563-8.48409412 6.9147935 1.50017493 11.8409234 7.62847112 11.8196437 14.70409412-.0553129 5.9147803-1.789242 11.692232-5 16.66l-.26.41-.12.17c-2.5964438 3.979241-5.8492796 7.4890577-9.62 10.38-1.2010041-.9070636-2.3464027-1.8854944-3.43-2.93-2.3579401-2.2302187-4.4486377-4.7269749-6.23-7.44l-.11-.17c-.08-.13-.17-.26-.27-.44-3.198072-4.9639792-4.9183308-10.7351699-4.96-16.64-.0064071-2.1445704.4471212-4.2655824 1.33-6.22zm.33 21.07c.48.94 1 1.88 1.57 2.81.1.18.22.35.33.52l.1.15c.18.29.38.56.56.84l-7.84-3.4.33-.92zm35.06 26-23.64-10.21 1.85-.8h.07c.1994427.0004453.3944627-.0587572.56-.17l.39-.28 9.4-4 13.84 6 3.39 9.46z"/><path id="Shape" d="m23 34h14c1.1045695 0 2-.8954305 2-2v-23c0-1.1045695-.8954305-2-2-2h-14c-1.1045695 0-2 .8954305-2 2v23c0 1.1045695.8954305 2 2 2zm6-2v-4h2v4zm-6-23h14v23h-4v-4c0-1.1045695-.8954305-2-2-2h-2c-1.1045695 0-2 .8954305-2 2v4h-4z"/><path id="Shape" d="m26 13h2c.5522847 0 1-.4477153 1-1s-.4477153-1-1-1h-2c-.5522847 0-1 .4477153-1 1s.4477153 1 1 1z"/><path id="Shape" d="m32 13h2c.5522847 0 1-.4477153 1-1s-.4477153-1-1-1h-2c-.5522847 0-1 .4477153-1 1s.4477153 1 1 1z"/><path id="Shape" d="m26 17h2c.5522847 0 1-.4477153 1-1s-.4477153-1-1-1h-2c-.5522847 0-1 .4477153-1 1s.4477153 1 1 1z"/><path id="Shape" d="m32 17h2c.5522847 0 1-.4477153 1-1s-.4477153-1-1-1h-2c-.5522847 0-1 .4477153-1 1s.4477153 1 1 1z"/><path id="Shape" d="m26 21h2c.5522847 0 1-.4477153 1-1s-.4477153-1-1-1h-2c-.5522847 0-1 .4477153-1 1s.4477153 1 1 1z"/><path id="Shape" d="m32 21h2c.5522847 0 1-.4477153 1-1s-.4477153-1-1-1h-2c-.5522847 0-1 .4477153-1 1s.4477153 1 1 1z"/><path id="Shape" d="m28 25c.5522847 0 1-.4477153 1-1s-.4477153-1-1-1h-2c-.5522847 0-1 .4477153-1 1s.4477153 1 1 1z"/><path id="Shape" d="m32 25h2c.5522847 0 1-.4477153 1-1s-.4477153-1-1-1h-2c-.5522847 0-1 .4477153-1 1s.4477153 1 1 1z"/></g></g></svg>